<?xml version="1.0" encoding="utf-8"?>
<!-- Generator: Adobe Illustrator 19.2.0, SVG Export Plug-In . SVG Version: 6.00 Build 0)  -->
<svg version="1.1" id="Layer_1" xmlns="http://www.w3.org/2000/svg" xmlns:xlink="http://www.w3.org/1999/xlink" x="0px" y="0px"
	 viewBox="0 0 1080 1080" style="enable-background:new 0 0 1080 1080;" xml:space="preserve">
<style type="text/css">
	.st0{clip-path:url(#SVGID_2_);}
	.st1{fill:#FDD8C1;}
	.st2{fill:url(#XMLID_4_);}
	.st3{opacity:0.15;fill:#FFFFFF;}
	.st4{fill:url(#XMLID_5_);}
	.st5{fill:#F47D4A;}
	.st6{fill:#F89D4D;}
	.st7{fill:#EF4436;}
	.st8{fill:#CA223F;}
	.st9{fill:#7F1336;}
	.st10{fill:#4F0C31;}
	.st11{fill:#2A132A;}
	.st12{fill:url(#XMLID_6_);}
	.st13{fill:none;}
</style>
<g>
	<defs>
		<rect id="SVGID_1_" width="1080" height="1080"/>
	</defs>
	<clipPath id="SVGID_2_">
		<use xlink:href="#SVGID_1_"  style="overflow:visible;"/>
	</clipPath>
	<g class="st0">
		<rect id="XMLID_138_" x="-14.6" y="-178.2" class="st1" width="1106" height="1106"/>
		<g id="XMLID_2_">
			<linearGradient id="XMLID_4_" gradientUnits="userSpaceOnUse" x1="850.4887" y1="290.5272" x2="850.4887" y2="149.4809">
				<stop  offset="0" style="stop-color:#FFFFFF;stop-opacity:0"/>
				<stop  offset="1" style="stop-color:#FFFFFF"/>
			</linearGradient>
			<path id="XMLID_137_" class="st2" d="M1081.1,233.9c3.8-26.8-3.4-56.7-24.4-73.9s-56.7-16.1-72.1,6.2
				c-7.8,11.4-9.5,25.8-14.8,38.6c-5.3,12.8-17.4,25.2-31,22.4c-9.4-1.9-15.8-10.2-23-16.5c-7.2-6.3-18.6-10.8-25.9-4.5
				c-2.9,2.5-4.4,6.2-6.5,9.4c-6.4,9.4-19.5,13.6-30.2,9.6c-8.6-3.3-17-11.2-25.5-7.8c-5.6,2.2-8.4,8.6-13.5,11.8
				c-6.5,4.1-14.9,2-22.6,1c-13.8-1.9-27.7,0.3-41.5,2.4c-44.5,6.8-89,13.6-133.5,20.5c42.7,9.2,87.4-2.6,130.6,3.5
				c23,3.2,45.4,11.5,68.6,11.8c16.5,0.2,33.1-3.5,49.2-0.2c23.9,4.9,45.5,25.2,69.4,20.1c18.8-4,33.6-23.3,52.8-21.5
				c5.4,0.5,10.5,2.7,15.6,4.9c17.1,7.3,35.8,13.8,53.8,9.4c18-4.5,33.1-24.6,25.5-41.5"/>
			<g id="XMLID_134_">
				<circle id="XMLID_136_" class="st3" cx="565.7" cy="196.2" r="261.7"/>
				<linearGradient id="XMLID_5_" gradientUnits="userSpaceOnUse" x1="565.6599" y1="336.6946" x2="565.6599" y2="34.0383">
					<stop  offset="0" style="stop-color:#FFFFFF;stop-opacity:0"/>
					<stop  offset="1" style="stop-color:#FFFFFF"/>
				</linearGradient>
				<circle id="XMLID_135_" class="st4" cx="565.7" cy="196.2" r="157.1"/>
			</g>
			<g id="XMLID_121_">
				<g id="XMLID_131_">
					<polygon id="XMLID_133_" class="st5" points="838.1,375.4 940.1,298.9 994.2,337.2 1092.2,265.6 1092.2,470.4 827.4,470.4 
											"/>
					<polygon id="XMLID_132_" class="st6" points="940.1,298.9 977.3,349.5 994.2,337.2 					"/>
				</g>
				<g id="XMLID_128_">
					<polygon id="XMLID_130_" class="st5" points="147.1,232.5 466.5,490.9 -13.9,490.9 -13.9,364.6 					"/>
					<polygon id="XMLID_129_" class="st6" points="147.1,232.5 176.5,298.9 154.2,298.9 210.9,353.3 262.6,326 					"/>
				</g>
				<g id="XMLID_122_">
					<path id="XMLID_127_" class="st5" d="M-13.9,442.2c0,0,94.4-11.1,324.9-143.3h41.5l13.8-19.4l196.3-97.2l529.5,249.2V621h-1106
						V442.2z"/>
					<g id="XMLID_124_">
						<polygon id="XMLID_126_" class="st6" points="562.6,182.4 716.4,309.9 601.5,290.5 825.7,422.9 1092.2,431.6 						"/>
						<polygon id="XMLID_125_" class="st6" points="825.7,422.9 684.1,536.2 872.8,422.9 						"/>
					</g>
					<polygon id="XMLID_123_" class="st6" points="352.5,298.9 300.9,349.5 333.1,298.9 					"/>
				</g>
			</g>
			<path id="XMLID_108_" class="st7" d="M1077.4,354.9C1077.4,354.9,1077.4,354.9,1077.4,354.9c0-2-1.1-3.7-2.2-5.2
				c-1.3-1.7-2.1-3.5-3.2-5.3c-1.3-2-2.6-3.8-2.9-6.2c2.2-2.1,4.4,4.7,7.4,3.8c2.1-0.7,1.1-3.7-0.2-5.5c-2.8-4.1-4.6-8.8-5.7-13.6
				c-0.5-2.4-0.9-4.8-1.3-7.3c-0.1-1,0-6.2-2.3-4.8c-0.7,0.4-0.9,1.3-1.1,2.1c-0.9,4.1-1.8,8.2-2.8,12.2c-0.8,3.2-1.2,7.6-3.3,10.3
				c-1.1,1.5-2.5,2.6-2.4,4.6c0,0.2,0,0.3,0.1,0.5c0.1,0.2,0.4,0.3,0.6,0.4c2.4,0.8,4-0.9,5.5-2.5c0.2-0.2,0.4-0.4,0.7-0.5
				c0.3-0.1,0.6-0.1,0.8,0.1c0.5,0.5,0.1,2.1,0,2.7c-0.3,2.1-1.3,4-2.5,5.7c-2,2.7-4.6,5-6.2,8c-0.1,0.2-0.2,0.4-0.3,0.6h-11.9
				L964,435.2c-1.4-2.8-3.8-5.2-5.8-7.6c-1.1-1.5-2.2-3-2.6-4.9c-0.1-0.5-0.7-2.1-0.4-2.5c0.6-1,1.6,0.3,1.9,0.8
				c0.5,0.9,1.1,1.7,1.7,2.6c0.5,0.6,1,1.3,1.7,1.7c0.7,0.4,1.5,0.6,2.3,0.3c1-0.4,1.4-1.6,1.5-2.6c0.1-1.6-0.6-3.2-1.5-4.6
				c-0.9-1.4-2.1-2.5-3.2-3.7c-0.8-0.9-1.6-1.8-2.4-2.8c-0.8-1-4.2-7.3-1.6-8.1c0.6-0.2,1.3,0.1,1.8,0.5c0.5,0.4,0.8,1,1.2,1.5
				c1,1.1,2.5,1.7,4,1.7c0.4,0,0.8-0.1,1.1-0.3c0.5-0.4,0.7-1,0.7-1.6c0-1.9-1.1-3.7-2.2-5.2c-1.3-1.7-2.1-3.5-3.2-5.3
				c-1.3-2-2.6-3.8-2.9-6.2c2.2-2.1,4.4,4.7,7.4,3.8c2.1-0.7,1.1-3.7-0.2-5.5c-2.8-4.1-4.6-8.8-5.7-13.6c-0.5-2.4-0.9-4.8-1.3-7.3
				c-0.1-1,0-6.2-2.3-4.8c-0.7,0.4-0.9,1.3-1.1,2.1c-0.9,4.1-1.8,8.2-2.8,12.2c-0.8,3.2-1.2,7.6-3.3,10.3c-1.1,1.5-2.5,2.6-2.4,4.6
				c0,0.2,0,0.3,0.1,0.5c0.1,0.2,0.4,0.3,0.6,0.4c2.4,0.8,4-0.9,5.5-2.5c0.2-0.2,0.4-0.4,0.7-0.5c0.3-0.1,0.6-0.1,0.8,0.1
				c0.5,0.5,0.1,2.1,0,2.7c-0.3,2.1-1.3,4-2.5,5.7c-2,2.7-4.6,5-6.2,8c-0.3,0.6-0.6,1.3-0.6,2c0.1,1.3,1.4,2,2.6,2.1
				c1.6,0.1,2.6-1.2,3.1-2.6c0.4-0.9,0.8-1.9,1.6-2.4c0.2-0.1,0.5-0.2,0.7,0c0.1,0.1,0.1,0.2,0.1,0.3c0.1,2-0.3,3.9-1.1,5.7
				c-0.9,1.9-2.2,3-3.7,4.4c-0.8,0.7-1.6,1.5-2.1,2.5c-0.4,0.7-0.6,1.5-0.5,2.3c0.1,0.8,0.6,1.5,1.3,1.8c1,0.4,2.2-0.2,2.9-0.9
				c0.4-0.4,2.5-3.8,3.3-2.5c0.3,0.5-0.3,2.3-0.4,2.9c-0.4,1.8-0.9,3.6-1.6,5.4c-0.1,0.2-0.2,0.4-0.3,0.6l-4.3-4.3h-46.9
				c0.1-2.6-1.5-5.3-3.1-7.3c-2.5-3-5.6-6.3-4.9-10.1c2.6,0.2,3.3,4.7,5.9,4.6c1.9,0,2.7-2.6,2.3-4.5c-0.9-4-4.2-6.8-6.6-9.8
				c-1.1-1.5-2.2-3-2.6-4.9c-0.1-0.5-0.7-2.1-0.4-2.5c0.6-1,1.6,0.3,1.9,0.8c0.5,0.9,1.1,1.7,1.7,2.6c0.5,0.6,1,1.3,1.7,1.7
				c0.7,0.4,1.5,0.6,2.3,0.3c1-0.4,1.4-1.6,1.5-2.6c0.1-1.6-0.6-3.2-1.5-4.6c-0.9-1.4-2.1-2.5-3.2-3.7c-0.8-0.9-1.6-1.8-2.4-2.8
				c-0.8-1-4.2-7.3-1.6-8.1c0.6-0.2,1.3,0.1,1.8,0.5c0.5,0.4,0.8,1,1.2,1.5c1,1.1,2.5,1.7,4,1.7c0.4,0,0.8-0.1,1.1-0.3
				c0.5-0.4,0.7-1,0.7-1.6c0-1.9-1.1-3.7-2.2-5.2c-1.3-1.7-2.1-3.5-3.2-5.3c-1.3-2-2.6-3.8-2.9-6.2c2.2-2.1,4.4,4.7,7.4,3.8
				c2.1-0.7,1.1-3.7-0.2-5.5c-2.8-4.1-4.6-8.8-5.7-13.6c-0.5-2.4-0.9-4.8-1.3-7.3c-0.1-1,0-6.2-2.3-4.8c-0.7,0.4-0.9,1.3-1.1,2.1
				c-0.9,4.1-1.8,8.2-2.8,12.2c-0.8,3.2-1.2,7.6-3.3,10.3c-1.1,1.5-2.5,2.6-2.4,4.6c0,0.2,0,0.3,0.1,0.5c0.1,0.2,0.4,0.3,0.6,0.4
				c2.4,0.8,4-0.9,5.5-2.5c0.2-0.2,0.4-0.4,0.7-0.5c0.3-0.1,0.6-0.1,0.8,0.1c0.5,0.5,0.1,2.1,0,2.7c-0.3,2.1-1.3,4-2.5,5.7
				c-2,2.7-4.6,5-6.2,8c-0.3,0.6-0.6,1.3-0.6,2c0.1,1.3,1.4,2,2.6,2.1c1.6,0.1,2.6-1.2,3.1-2.6c0.4-0.9,0.8-1.9,1.6-2.4
				c0.2-0.1,0.5-0.2,0.7,0c0.1,0.1,0.1,0.2,0.1,0.3c0.1,2-0.3,3.9-1.1,5.7c-0.9,1.9-2.2,3-3.7,4.4c-0.8,0.7-1.6,1.5-2.1,2.5
				c-0.4,0.7-0.6,1.5-0.5,2.3c0.1,0.8,0.6,1.5,1.3,1.8c1,0.4,2.2-0.2,2.9-0.9c0.4-0.4,2.5-3.8,3.3-2.5c0.3,0.5-0.3,2.3-0.4,2.9
				c-0.4,1.8-0.9,3.6-1.6,5.4c-1.4,3.5-3.6,6.8-6.2,9.5c-1.1,1.2-2.5,2.5-2.4,4.1c0.1,2.2,2.9,3.2,4.7,2.6c2.6-0.7,2.5-3.4,4.4-4.8
				c0.1-0.1,0.3-0.2,0.5-0.2c0.4,0.1,0.4,0.6,0.4,1c-0.6,3.7-2.1,7.2-4.2,10.2c-1.1,1.6-2.4,3-3.3,4.7c-0.2,0.5-0.4,0.9-0.6,1.4
				h-13.2c-0.5-1-1.1-1.9-1.9-2.6c-0.9-0.9-1.9-1.6-2.8-2.6c-0.6-0.6-2.9-4.7-0.5-4.6c0.3,0,0.6,0.2,0.8,0.4c0.6,0.5,1,1.3,1.5,1.8
				c0.5,0.6,1.4,1,2.1,0.7c1-0.5,0.9-1.9,0.6-3c-0.7-2.2-1.9-4.2-3.4-6c-1.3-1.6-3.7-3.3-2.9-5.7c0.1-0.3,0.2-0.6,0.5-0.8
				c0.4-0.3,1.1-0.3,1.5,0c0.5,0.3,0.8,0.7,1.2,1.1c0.5,0.6,2.6,4.1,3.6,2.2c0.1-0.3,0.1-0.6,0.1-0.8c-0.1-2.7-1.1-5.4-2.6-7.7
				c-1.4-2.1-3.4-3.8-4.3-6.1c-0.6-1.4-0.6-3.8,1.3-3.9c1.6,0,2.8,1.9,4,2.6c1,0.6,2.6,0.5,2.9-0.6c0.1-0.4,0-0.9-0.1-1.3
				c-0.8-2.5-2.1-5-4-6.8c-1.8-1.8-3.3-2.8-4.3-5.3c-0.4-0.9-0.6-2.2,0.3-2.8c0.7-0.4,1.6-0.1,2.1,0.4c0.6,0.5,1,1.2,1.6,1.7
				c0.6,0.5,1.5,0.8,2.1,0.4c0.5-0.3,0.7-1,0.6-1.7c-0.1-0.6-0.4-1.2-0.8-1.7c-1.1-1.7-2.2-3.4-3.3-5.1c-0.8-1.3-2.2-3.1-2.5-4.6
				c-0.1-0.6,0-1.2,0.5-1.5c0.4-0.2,0.8,0,1.1,0.2c0.3,0.2,0.6,0.6,0.8,0.8c0.6,0.6,1.3,0.9,2.1,1.1c0.5,0.1,1.1,0,1.5-0.4
				c0.3-0.3,0.4-0.8,0.3-1.2c-0.2-1.8-1.6-3.2-2.9-4.5c-0.8-0.8-5-6-3.1-7c1.5-0.8,3.5,3.9,5.1,2c0.4-0.5,0.4-1.3,0.2-2
				c-0.3-0.7-0.7-1.4-1.3-1.8c-0.7-0.6-1.6-0.9-2.4-1.4c-1-0.6-3.6-4.1-1.7-5c1.5-0.7,2.4,1.5,3.5,2c0.4,0.2,0.9,0.2,1.1,0
				c0,0,0,0,0-0.1c0.1-0.1,0.1-0.3,0.1-0.5c0.2-2.3-1-4.4-2.3-6.3c-1.2-1.9-2.6-3.8-3-6c-0.1-0.4-0.1-0.8,0.1-1.1
				c0.2-0.4,0.5-0.6,0.9-0.5c0.6,0.2,0.2,1.3,0.8,1.7c0.5,0.4,1.4,0.3,1.9,0c0.8-0.6,1-1.7,0.8-2.7c-0.3-1-0.9-1.8-1.5-2.6
				c-1.8-2.6-3.1-5.6-3.7-8.7c-0.6-3.1-0.1-5.9-0.2-9c0-0.8,0.1-4.9-1.2-4.8c-1.3,0.1-1.4,3.6-1.4,4.5c-0.4,6.8-1,14.1-5.4,19.4
				c-0.6,0.7-1.2,1.4-1.3,2.3c-0.1,0.9,0.4,1.8,1.1,2.1c0.8,0.4,1.8,0.2,2.4-0.4c0.4-0.4,0.9-1.5,1.6-0.8c0.3,0.3,0.4,0.7,0.4,1.1
				c0.2,2.8-1.1,5.5-2.6,7.8c-1.5,2.4-3.2,4.6-4.1,7.3c-0.3,0.8-0.5,1.8-0.2,2.6c0.2,0.9,0.9,1.6,1.8,1.7c1.5,0.1,1.7-1.3,2.8-1.9
				c0.5-0.3,1.3-0.3,1.7,0.2c0.3,0.3,0.4,0.8,0.3,1.2c-0.1,2.1-2,3.6-3.5,5.1c-1.7,1.7-3.1,3.8-4,6.1c-0.3,0.7-0.5,1.4-0.4,2.1
				s0.3,1.5,0.9,1.9c0.9,0.6,2.2,0.2,3-0.5c0.8-0.8,1.3-1.8,1.8-2.8c0.3-0.5,0.7-1.1,1.3-1.3c2.5-0.5,0.7,3.6,0.2,4.3
				c-2.9,3.8-7,7.6-6.8,12.5c0,0.8,0.3,1.7,1,2c1,0.5,2.1-0.6,2.7-1.5c0.4-0.6,3.2-6.3,3.6-3.3c0.4,2.8-1.8,4.2-3.4,6
				c-1.8,2.2-3.1,4.7-3.9,7.4c-0.3,1.2-0.4,2.7,0.7,3.2c1.7,0.7,2.3-1.6,3.3-2.4c1.1-0.8,2.6-0.4,2.9,1c0.2,0.9-0.2,1.7-0.6,2.5
				c-1.8,3.2-5.5,5.1-6.8,8.5c-0.3,0.9-0.4,2.2,0.4,2.8c1.3,1,2.6-0.7,3.5-1.5c0.3-0.3,0.6-0.5,1-0.5c0.4,0,0.8,0.4,0.9,0.8
				c0.1,0.4,0,0.8-0.1,1.3c-1.1,3.5-4.2,5.1-6.3,7.8c-0.9,1.2-1.6,2.7-1.8,4.2c-0.1,0.7-0.1,1.5,0.1,2.2c0.3,0.7,1,1.3,1.7,1.2
				c1,0,1.6-0.9,2-1.8c0.4-0.9,0.6-1.9,1.2-2.6c0.8-0.9,2.6-0.8,2.7,0.6c0.1,1.1-1.6,2.5-2.2,3.4c-1.2,1.9-2.4,3.9-3.6,5.8h-14.4
				l-37,37c-0.6-0.8-1.4-1.6-2.1-2.3c-2.5-2.5-4.2-5.7-5.1-9c1.1,1.4,2.4,2.7,3.9,3.8c1,0.8,2.2,0.7,2.6-0.7
				c0.2-0.6,0.1-1.2,0.1-1.8c-0.1-1.3-0.4-2.6-0.9-3.8c-0.9-2.1-2.7-3.6-4.1-5.3c-1.5-1.7-2.7-3.9-2.2-6.1c0.1-0.3,0.2-0.7,0.5-0.9
				c0.5-0.3,1.1,0.2,1.4,0.7c0.6,1.1,0.7,1.9,2,1.4c1-0.3,1.6-1.5,1.6-2.4c0-0.8-0.5-1.5-0.9-2.3c-2.1-3.6-6.3-7-5.6-11.7
				c0-0.3,0.1-0.7,0.4-0.9c0.6-0.5,1.6,0.2,2,0.9c0.5,0.7,1.2,1.5,2,1.2c0.8-0.3,0.8-1.3,0.6-2.1c-0.9-3.5-3.1-6.6-4.6-9.9
				c-0.4-0.9-0.7-1.8-0.6-2.7c0-0.2,0.1-0.4,0.2-0.5c0.3-0.3,0.8-0.3,1.1,0c0.7,0.7,0.8,2,2.1,2.1c1.2,0.1,2-1.2,1.9-2.4
				c-0.1-1.2-0.8-2.2-1.5-3.1c-4.6-7.3-4.5-16.9-7.3-24.8c-0.1-0.3-0.2-0.6-0.5-0.8c-0.5-0.4-1.3,0-1.6,0.6
				c-0.3,0.6-0.2,1.3-0.1,1.9c0.6,5.5-0.4,11-1.4,16.4c-0.4,2.1-0.8,4.1-1.5,6.1c-0.9,2.6-2.4,4.9-3.4,7.4c-0.5,1.3-0.7,3.2,0.7,3.6
				c1.6,0.5,2.8-2.1,4.5-2c2.8,0.1,0.6,3.9,0.1,5c-1.2,2.5-3.3,4.8-3.3,7.8c0,0.4,0,0.8,0.2,1.2c1.5,2.3,3.6-1.4,4.2-2.3
				c0.3-0.4,0.9-0.7,1.4-0.5c0.4,0.3,0.4,0.9,0.4,1.4c-0.6,5.8-6.6,9.4-8.2,14.9c-0.2,0.7-0.3,1.5,0,2.1c0.7,1.5,3.1,1.1,4.3-0.1
				c0.8-0.8,1.4-1.9,2.2-2.7c0.9-0.8,2.4-1.3,2,0.6c-0.1,0.7-0.6,1.2-1.1,1.7c-1.3,1.4-2.6,2.9-4,4.2c-0.7,0.7-1.5,1.3-2.1,2.1
				c-0.7,1-1.1,2.2-1.5,3.3c-0.3,1-0.6,2.3,0.2,3.1c0.5,0.4,1.3,0.4,1.9,0.2c0.6-0.3,1.1-0.8,1.5-1.3c0.7-0.8,1.3-1.8,1.9-2.7
				c0.3-0.2,0.8,0,1,0.4c0.2,0.4,0.1,0.8,0.1,1.2c-0.5,3.2-2.1,4.7-4.4,6.8c-2.5,2.2-5.3,4.5-5.7,7.8c-0.1,0.6,0,1.2,0.3,1.8h-86.5
				c0-0.1,0-0.2,0-0.4c0-1.9-1.1-3.7-2.2-5.2c-1.3-1.7-2.1-3.5-3.2-5.3c-1.3-2-2.6-3.8-2.9-6.2c2.2-2.1,4.4,4.7,7.4,3.8
				c2.1-0.7,1.1-3.7-0.2-5.5c-2.8-4.1-4.6-8.8-5.7-13.6c-0.5-2.4-0.9-4.8-1.3-7.3c-0.1-1,0-6.2-2.3-4.8c-0.7,0.4-0.9,1.3-1.1,2.1
				c-0.9,4.1-1.8,8.2-2.8,12.2c-0.8,3.2-1.2,7.6-3.3,10.3c-1.1,1.5-2.5,2.6-2.4,4.6c0,0.2,0,0.3,0.1,0.5c0.1,0.2,0.4,0.3,0.6,0.4
				c2.4,0.8,4-0.9,5.5-2.5c0.2-0.2,0.4-0.4,0.7-0.5c0.3-0.1,0.6-0.1,0.8,0.1c0.5,0.5,0.1,2.1,0,2.7c-0.3,2.1-1.3,4-2.5,5.7
				c-2,2.7-4.6,5-6.2,8c-0.3,0.6-0.6,1.3-0.6,2c0.1,1.3,1.4,2,2.6,2.1c1.6,0.1,2.6-1.2,3.1-2.6c0.4-0.9,0.8-1.9,1.6-2.4
				c0.2-0.1,0.5-0.2,0.7,0c0.1,0.1,0.1,0.2,0.1,0.3c0.1,1.7-0.2,3.3-0.8,4.9l-14.5,5.2c0,0,0,0,0-0.1c-0.9-4-4.2-6.8-6.6-9.8
				c-1.1-1.5-2.2-3-2.6-4.9c-0.1-0.5-0.7-2.1-0.4-2.5c0.6-1,1.6,0.3,1.9,0.8c0.5,0.9,1.1,1.7,1.7,2.6c0.5,0.6,1,1.3,1.7,1.7
				c0.7,0.4,1.5,0.6,2.3,0.3c1-0.4,1.4-1.6,1.5-2.6c0.1-1.6-0.6-3.2-1.5-4.6c-0.9-1.4-2.1-2.5-3.2-3.7c-0.8-0.9-1.6-1.8-2.4-2.8
				c-0.8-1-4.2-7.3-1.6-8.1c0.6-0.2,1.3,0.1,1.8,0.5c0.5,0.4,0.8,1,1.2,1.5c1,1.1,2.5,1.7,4,1.7c0.4,0,0.8-0.1,1.1-0.3
				c0.5-0.4,0.7-1,0.7-1.6c0-1.9-1.1-3.7-2.2-5.2c-1.3-1.7-2.1-3.5-3.2-5.3c-1.3-2-2.6-3.8-2.9-6.2c2.2-2.1,4.4,4.7,7.4,3.8
				c2.1-0.7,1.1-3.7-0.2-5.5c-2.8-4.1-4.6-8.8-5.7-13.6c-0.5-2.4-0.9-4.8-1.3-7.3c-0.1-1,0-6.2-2.3-4.8c-0.7,0.4-0.9,1.3-1.1,2.1
				c-0.9,4.1-1.8,8.2-2.8,12.2c-0.8,3.2-1.2,7.6-3.3,10.3c-1.1,1.5-2.5,2.6-2.4,4.6c0,0.2,0,0.3,0.1,0.5c0.1,0.2,0.4,0.3,0.6,0.4
				c2.4,0.8,4-0.9,5.5-2.5c0.2-0.2,0.4-0.4,0.7-0.5c0.3-0.1,0.6-0.1,0.8,0.1c0.5,0.5,0.1,2.1,0,2.7c-0.3,2.1-1.3,4-2.5,5.7
				c-2,2.7-4.6,5-6.2,8c-0.3,0.6-0.6,1.3-0.6,2c0.1,1.3,1.4,2,2.6,2.1c1.6,0.1,2.6-1.2,3.1-2.6c0.4-0.9,0.8-1.9,1.6-2.4
				c0.2-0.1,0.5-0.2,0.7,0c0.1,0.1,0.1,0.2,0.1,0.3c0.1,2-0.3,3.9-1.1,5.7c-0.9,1.9-2.2,3-3.7,4.4c-0.8,0.7-1.6,1.5-2.1,2.5
				c-0.4,0.7-0.6,1.5-0.5,2.3c0.1,0.8,0.6,1.5,1.3,1.8c1,0.4,2.2-0.2,2.9-0.9c0.4-0.4,2.5-3.8,3.3-2.5c0.3,0.5-0.3,2.3-0.4,2.9
				c-0.4,1.8-0.9,3.6-1.6,5.4c-1.4,3.5-3.6,6.8-6.2,9.5c-1.1,1.2-2.5,2.5-2.4,4.1c0.1,2.2,2.9,3.2,4.7,2.6c2.6-0.7,2.5-3.4,4.4-4.8
				c0.1-0.1,0.3-0.2,0.5-0.2c0.4,0.1,0.4,0.6,0.4,1c-0.3,1.7-0.8,3.4-1.4,5l-23.5,8.4c-0.5-0.6-1.1-1.2-1.6-1.8
				c-0.8-1-4.2-7.3-1.6-8.1c0.6-0.2,1.3,0.1,1.8,0.5c0.5,0.4,0.8,1,1.2,1.5c1,1.1,2.5,1.7,4,1.7c0.4,0,0.8-0.1,1.1-0.3
				c0.5-0.4,0.7-1,0.7-1.6c0-1.9-1.1-3.7-2.2-5.2c-1.3-1.7-2.1-3.5-3.2-5.3c-1.3-2-2.6-3.8-2.9-6.2c2.2-2.1,4.4,4.7,7.4,3.8
				c2.1-0.7,1.1-3.7-0.2-5.5c-2.8-4.1-4.6-8.8-5.7-13.6c-0.5-2.4-0.9-4.8-1.3-7.3c-0.1-1,0-6.2-2.3-4.8c-0.7,0.4-0.9,1.3-1.1,2.1
				c-0.9,4.1-1.8,8.2-2.8,12.2c-0.8,3.2-1.2,7.6-3.3,10.3c-1.1,1.5-2.5,2.6-2.4,4.6c0,0.2,0,0.3,0.1,0.5c0.1,0.2,0.4,0.3,0.6,0.4
				c2.4,0.8,4-0.9,5.5-2.5c0.2-0.2,0.4-0.4,0.7-0.5c0.3-0.1,0.6-0.1,0.8,0.1c0.5,0.5,0.1,2.1,0,2.7c-0.3,2.1-1.3,4-2.5,5.7
				c-2,2.7-4.6,5-6.2,8c-0.3,0.6-0.6,1.3-0.6,2c0.1,1.3,1.4,2,2.6,2.1c1.6,0.1,2.6-1.2,3.1-2.6c0.4-0.9,0.8-1.9,1.6-2.4
				c0.2-0.1,0.5-0.2,0.7,0c0.1,0.1,0.1,0.2,0.1,0.3c0.1,2-0.3,3.9-1.1,5.7c-0.9,1.9-2.2,3-3.7,4.4c-0.8,0.7-1.6,1.5-2.1,2.5
				c-0.4,0.7-0.6,1.5-0.5,2.2l-14.9,5.3h-53.8l-26.3-12.2c-0.9-1.3-2-2.4-3.1-3.6c-0.8-0.9-1.6-1.8-2.4-2.8c-0.8-1-4.2-7.3-1.6-8.1
				c0.6-0.2,1.3,0.1,1.8,0.5c0.5,0.4,0.8,1,1.2,1.5c1,1.1,2.5,1.7,4,1.7c0.4,0,0.8-0.1,1.1-0.3c0.5-0.4,0.7-1,0.7-1.6
				c0-1.9-1.1-3.7-2.2-5.2c-1.3-1.7-2.1-3.5-3.2-5.3c-1.3-2-2.6-3.8-2.9-6.2c2.2-2.1,4.4,4.7,7.4,3.8c2.1-0.7,1.1-3.7-0.2-5.5
				c-2.8-4.1-4.6-8.8-5.7-13.6c-0.5-2.4-0.9-4.8-1.3-7.3c-0.1-1,0-6.2-2.3-4.8c-0.7,0.4-0.9,1.3-1.1,2.1c-0.9,4.1-1.8,8.2-2.8,12.2
				c-0.8,3.2-1.2,7.6-3.3,10.3c-1.1,1.5-2.5,2.6-2.4,4.6c0,0.2,0,0.3,0.1,0.5c0.1,0.2,0.4,0.3,0.6,0.4c2.4,0.8,4-0.9,5.5-2.5
				c0.2-0.2,0.4-0.4,0.7-0.5c0.3-0.1,0.6-0.1,0.8,0.1c0.5,0.5,0.1,2.1,0,2.7c-0.3,2.1-1.3,4-2.5,5.7c-2,2.7-4.6,5-6.2,8
				c-0.3,0.6-0.6,1.3-0.6,2c0.1,1.3,1.4,2,2.6,2.1c1.6,0.1,2.6-1.2,3.1-2.6c0.4-0.9,0.8-1.9,1.6-2.4c0.2-0.1,0.5-0.2,0.7,0
				c0.1,0.1,0.1,0.2,0.1,0.3c0.1,2-0.3,3.9-1.1,5.7c-0.3,0.6-0.7,1.2-1.1,1.7l-8.6-4c0-1.5-0.6-3.1-1.5-4.3
				c-0.9-1.4-2.1-2.5-3.2-3.7c-0.8-0.9-1.6-1.8-2.4-2.8c-0.8-1-4.2-7.3-1.6-8.1c0.6-0.2,1.3,0.1,1.8,0.5c0.5,0.4,0.8,1,1.2,1.5
				c1,1.1,2.5,1.7,4,1.7c0.4,0,0.8-0.1,1.1-0.3c0.5-0.4,0.7-1,0.7-1.6c0-1.9-1.1-3.7-2.2-5.2c-1.3-1.7-2.1-3.5-3.2-5.3
				c-1.3-2-2.6-3.8-2.9-6.2c2.2-2.1,4.4,4.7,7.4,3.8c2.1-0.7,1.1-3.7-0.2-5.5c-2.8-4.1-4.6-8.8-5.7-13.6c-0.5-2.4-0.9-4.8-1.3-7.3
				c-0.1-1,0-6.2-2.3-4.8c-0.7,0.4-0.9,1.3-1.1,2.1c-0.9,4.1-1.8,8.2-2.8,12.2c-0.8,3.2-1.2,7.6-3.3,10.3c-1.1,1.5-2.5,2.6-2.4,4.6
				c0,0.2,0,0.3,0.1,0.5c0.1,0.2,0.4,0.3,0.6,0.4c2.4,0.8,4-0.9,5.5-2.5c0.2-0.2,0.4-0.4,0.7-0.5c0.3-0.1,0.6-0.1,0.8,0.1
				c0.5,0.5,0.1,2.1,0,2.7c-0.3,2.1-1.3,4-2.5,5.7c-2,2.7-4.6,5-6.2,8c-0.3,0.6-0.6,1.3-0.6,2c0.1,1.3,1.4,2,2.6,2.1
				c1.6,0.1,2.6-1.2,3.1-2.6c0.4-0.9,0.8-1.9,1.6-2.4c0.2-0.1,0.5-0.2,0.7,0c0.1,0.1,0.1,0.2,0.1,0.3c0.1,2-0.3,3.9-1.1,5.7
				c-0.8,1.8-2.1,2.9-3.5,4.3l-13.6-6.3c-0.5-2-1.7-4-2.9-5.5c-2.5-3-5.6-6.3-4.9-10.1c2.6,0.2,3.3,4.7,5.9,4.6
				c1.9,0,2.7-2.6,2.3-4.5c-0.9-4-4.2-6.8-6.6-9.8c-1.1-1.5-2.2-3-2.6-4.9c-0.1-0.5-0.7-2.1-0.4-2.5c0.6-1,1.6,0.3,1.9,0.8
				c0.5,0.9,1.1,1.7,1.7,2.6c0.5,0.6,1,1.3,1.7,1.7c0.7,0.4,1.5,0.6,2.3,0.3c1-0.4,1.4-1.6,1.5-2.6c0.1-1.6-0.6-3.2-1.5-4.6
				c-0.9-1.4-2.1-2.5-3.2-3.7c-0.8-0.9-1.6-1.8-2.4-2.8c-0.8-1-4.2-7.3-1.6-8.1c0.6-0.2,1.3,0.1,1.8,0.5c0.5,0.4,0.8,1,1.2,1.5
				c1,1.1,2.5,1.7,4,1.7c0.4,0,0.8-0.1,1.1-0.3c0.5-0.4,0.7-1,0.7-1.6c0-1.9-1.1-3.7-2.2-5.2c-1.3-1.7-2.1-3.5-3.2-5.3
				c-1.3-2-2.6-3.8-2.9-6.2c2.2-2.1,4.4,4.7,7.4,3.8c2.1-0.7,1.1-3.7-0.2-5.5c-2.8-4.1-4.6-8.8-5.7-13.6c-0.5-2.4-0.9-4.8-1.3-7.3
				c-0.1-1,0-6.2-2.3-4.8c-0.7,0.4-0.9,1.3-1.1,2.1c-0.9,4.1-1.8,8.2-2.8,12.2c-0.8,3.2-1.2,7.6-3.3,10.3c-1.1,1.5-2.5,2.6-2.4,4.6
				c0,0.2,0,0.3,0.1,0.5c0.1,0.2,0.4,0.3,0.6,0.4c2.4,0.8,4-0.9,5.5-2.5c0.2-0.2,0.4-0.4,0.7-0.5c0.3-0.1,0.6-0.1,0.8,0.1
				c0.5,0.5,0.1,2.1,0,2.7c-0.3,2.1-1.3,4-2.5,5.7c-2,2.7-4.6,5-6.2,8c-0.3,0.6-0.6,1.3-0.6,2c0.1,1.3,1.4,2,2.6,2.1
				c1.6,0.1,2.6-1.2,3.1-2.6c0.4-0.9,0.8-1.9,1.6-2.4c0.2-0.1,0.5-0.2,0.7,0c0.1,0.1,0.1,0.2,0.1,0.3c0.1,2-0.3,3.9-1.1,5.7
				c-0.9,1.9-2.2,3-3.7,4.4c-0.8,0.7-1.6,1.5-2.1,2.5c-0.4,0.7-0.6,1.5-0.5,2.3c0.1,0.8,0.6,1.5,1.3,1.8c1,0.4,2.2-0.2,2.9-0.9
				c0.4-0.4,2.5-3.8,3.3-2.5c0.3,0.5-0.3,2.3-0.4,2.9c-0.4,1.8-0.9,3.6-1.6,5.4c-1.4,3.5-3.6,6.8-6.2,9.5c-1.1,1.2-2.5,2.5-2.4,4.1
				c0.1,2.2,2.9,3.2,4.7,2.6c2.6-0.7,2.5-3.4,4.4-4.8c0.1-0.1,0.3-0.2,0.5-0.2c0.4,0.1,0.4,0.6,0.4,1c-0.4,2.4-1.2,4.7-2.3,6.9
				L407,443.6c0.8-0.5,1.2-1.5,1.2-2.4c0.1-1.6-0.6-3.2-1.5-4.6c-0.9-1.4-2.1-2.5-3.2-3.7c-0.8-0.9-1.6-1.8-2.4-2.8
				c-0.8-1-4.2-7.3-1.6-8.1c0.6-0.2,1.3,0.1,1.8,0.5c0.5,0.4,0.8,1,1.2,1.5c1,1.1,2.5,1.7,4,1.7c0.4,0,0.8-0.1,1.1-0.3
				c0.5-0.4,0.7-1,0.7-1.6c0-1.9-1.1-3.7-2.2-5.2c-1.3-1.7-2.1-3.5-3.2-5.3c-1.3-2-2.6-3.8-2.9-6.2c2.2-2.1,4.4,4.7,7.4,3.8
				c2.1-0.7,1.1-3.7-0.2-5.5c-2.8-4.1-4.6-8.8-5.7-13.6c-0.5-2.4-0.9-4.8-1.3-7.3c-0.1-1,0-6.2-2.3-4.8c-0.7,0.4-0.9,1.3-1.1,2.1
				c-0.9,4.1-1.8,8.2-2.8,12.2c-0.8,3.2-1.2,7.6-3.3,10.3c-1.1,1.5-2.5,2.6-2.4,4.6c0,0.2,0,0.3,0.1,0.5c0.1,0.2,0.4,0.3,0.6,0.4
				c2.4,0.8,4-0.9,5.5-2.5c0.2-0.2,0.4-0.4,0.7-0.5c0.3-0.1,0.6-0.1,0.8,0.1c0.5,0.5,0.1,2.1,0,2.7c-0.3,2.1-1.3,4-2.5,5.7
				c-2,2.7-4.6,5-6.2,8c-0.3,0.6-0.6,1.3-0.6,2c0.1,1.3,1.4,2,2.6,2.1c1.6,0.1,2.6-1.2,3.1-2.6c0.4-0.9,0.8-1.9,1.6-2.4
				c0.2-0.1,0.5-0.2,0.7,0c0.1,0.1,0.1,0.2,0.1,0.3c0.1,2-0.3,3.9-1.1,5.7c-0.9,1.9-2.2,3-3.7,4.4c-0.7,0.7-1.4,1.4-1.9,2.2
				l-21.9-10.1c-0.3-0.4-0.7-0.7-1-1.1c-0.8-0.9-1.6-1.8-2.4-2.8c-0.8-1-4.2-7.3-1.6-8.1c0.6-0.2,1.3,0.1,1.8,0.5
				c0.5,0.4,0.8,1,1.2,1.5c1,1.1,2.5,1.7,4,1.7c0.4,0,0.8-0.1,1.1-0.3c0.5-0.4,0.7-1,0.7-1.6c0-1.9-1.1-3.7-2.2-5.2
				c-1.3-1.7-2.1-3.5-3.2-5.3c-1.3-2-2.6-3.8-2.9-6.2c2.2-2.1,4.4,4.7,7.4,3.8c2.1-0.7,1.1-3.7-0.2-5.5c-2.8-4.1-4.6-8.8-5.7-13.6
				c-0.5-2.4-0.9-4.8-1.3-7.3c-0.1-1,0-6.2-2.3-4.8c-0.7,0.4-0.9,1.3-1.1,2.1c-0.9,4.1-1.8,8.2-2.8,12.2c-0.8,3.2-1.2,7.6-3.3,10.3
				c-1.1,1.5-2.5,2.6-2.4,4.6c0,0.2,0,0.3,0.1,0.5c0.1,0.2,0.4,0.3,0.6,0.4c2.4,0.8,4-0.9,5.5-2.5c0.2-0.2,0.4-0.4,0.7-0.5
				c0.3-0.1,0.6-0.1,0.8,0.1c0.5,0.5,0.1,2.1,0,2.7c-0.3,2.1-1.3,4-2.5,5.7c-2,2.7-4.6,5-6.2,8c-0.3,0.6-0.6,1.3-0.6,2
				c0,0.3,0.1,0.5,0.2,0.7l-5.5-2.5c-0.9-1.2-2-2.3-3-3.5c-0.8-0.9-1.6-1.8-2.4-2.8c-0.8-1-4.2-7.3-1.6-8.1c0.6-0.2,1.3,0.1,1.8,0.5
				c0.5,0.4,0.8,1,1.2,1.5c1,1.1,2.5,1.7,4,1.7c0.4,0,0.8-0.1,1.1-0.3c0.5-0.4,0.7-1,0.7-1.6c0-1.9-1.1-3.7-2.2-5.2
				c-1.3-1.7-2.1-3.5-3.2-5.3c-1.3-2-2.6-3.8-2.9-6.2c2.2-2.1,4.4,4.7,7.4,3.8c2.1-0.7,1.1-3.7-0.2-5.5c-2.8-4.1-4.6-8.8-5.7-13.6
				c-0.5-2.4-0.9-4.8-1.3-7.3c-0.1-1,0-6.2-2.3-4.8c-0.7,0.4-0.9,1.3-1.1,2.1c-0.9,4.1-1.8,8.2-2.8,12.2c-0.8,3.2-1.2,7.6-3.3,10.3
				c-1.1,1.5-2.5,2.6-2.4,4.6c0,0.2,0,0.3,0.1,0.5c0.1,0.2,0.4,0.3,0.6,0.4c2.4,0.8,4-0.9,5.5-2.5c0.2-0.2,0.4-0.4,0.7-0.5
				c0.3-0.1,0.6-0.1,0.8,0.1c0.5,0.5,0.1,2.1,0,2.7c-0.3,2.1-1.3,4-2.5,5.7c-2,2.7-4.6,5-6.2,8c-0.3,0.6-0.6,1.3-0.6,2
				c0.1,1.3,1.4,2,2.6,2.1c1.6,0.1,2.6-1.2,3.1-2.6c0.4-0.9,0.8-1.9,1.6-2.4c0.2-0.1,0.5-0.2,0.7,0c0.1,0.1,0.1,0.2,0.1,0.3
				c0.1,2-0.3,3.9-1.1,5.7c-0.3,0.6-0.6,1.1-1,1.6l-26-12c-1.1-1.3-2.2-2.5-3.2-3.8c-1.1-1.5-2.2-3-2.6-4.9
				c-0.1-0.5-0.7-2.1-0.4-2.5c0.6-1,1.6,0.3,1.9,0.8c0.5,0.9,1.1,1.7,1.7,2.6c0.5,0.6,1,1.3,1.7,1.7c0.7,0.4,1.5,0.6,2.3,0.3
				c1-0.4,1.4-1.6,1.5-2.6c0.1-1.6-0.6-3.2-1.5-4.6c-0.9-1.4-2.1-2.5-3.2-3.7c-0.8-0.9-1.6-1.8-2.4-2.8c-0.8-1-4.2-7.3-1.6-8.1
				c0.6-0.2,1.3,0.1,1.8,0.5c0.5,0.4,0.8,1,1.2,1.5c1,1.1,2.5,1.7,4,1.7c0.4,0,0.8-0.1,1.1-0.3c0.5-0.4,0.7-1,0.7-1.6
				c0-1.9-1.1-3.7-2.2-5.2c-1.3-1.7-2.1-3.5-3.2-5.3c-1.3-2-2.6-3.8-2.9-6.2c2.2-2.1,4.4,4.7,7.4,3.8c2.1-0.7,1.1-3.7-0.2-5.5
				c-2.8-4.1-4.6-8.8-5.7-13.6c-0.5-2.4-0.9-4.8-1.3-7.3c-0.1-1,0-6.2-2.3-4.8c-0.7,0.4-0.9,1.3-1.1,2.1c-0.9,4.1-1.8,8.2-2.8,12.2
				c-0.8,3.2-1.2,7.6-3.3,10.3c-1.1,1.5-2.5,2.6-2.4,4.6c0,0.2,0,0.3,0.1,0.5c0.1,0.2,0.4,0.3,0.6,0.4c2.4,0.8,4-0.9,5.5-2.5
				c0.2-0.2,0.4-0.4,0.7-0.5c0.3-0.1,0.6-0.1,0.8,0.1c0.5,0.5,0.1,2.1,0,2.7c-0.3,2.1-1.3,4-2.5,5.7c-2,2.7-4.6,5-6.2,8
				c-0.3,0.6-0.6,1.3-0.6,2c0.1,1.3,1.4,2,2.6,2.1c1.6,0.1,2.6-1.2,3.1-2.6c0.4-0.9,0.8-1.9,1.6-2.4c0.2-0.1,0.5-0.2,0.7,0
				c0.1,0.1,0.1,0.2,0.1,0.3c0.1,2-0.3,3.9-1.1,5.7c-0.9,1.9-2.2,3-3.7,4.4c-0.8,0.7-1.6,1.5-2.1,2.5c-0.4,0.7-0.6,1.5-0.5,2.3
				c0.1,0.8,0.6,1.5,1.3,1.8c1,0.4,2.2-0.2,2.9-0.9c0.4-0.4,2.5-3.8,3.3-2.5c0.3,0.5-0.3,2.3-0.4,2.9c-0.3,1.7-0.9,3.4-1.5,5
				l-23.9-11c0,0,0,0,0,0c0-1.9-1.1-3.7-2.2-5.2c-1.3-1.7-2.1-3.5-3.2-5.3c-1.3-2-2.6-3.8-2.9-6.2c2.2-2.1,4.4,4.7,7.4,3.8
				c2.1-0.7,1.1-3.7-0.2-5.5c-2.8-4.1-4.6-8.8-5.7-13.6c-0.5-2.4-0.9-4.8-1.3-7.3c-0.1-1,0-6.2-2.3-4.8c-0.7,0.4-0.9,1.3-1.1,2.1
				c-0.9,4.1-1.8,8.2-2.8,12.2c-0.8,3.2-1.2,7.6-3.3,10.3c-1.1,1.5-2.5,2.6-2.4,4.6c0,0.2,0,0.3,0.1,0.5c0.1,0.2,0.4,0.3,0.6,0.4
				c2.4,0.8,4-0.9,5.5-2.5c0.2-0.2,0.4-0.4,0.7-0.5c0.3-0.1,0.6-0.1,0.8,0.1c0.5,0.5,0.1,2.1,0,2.7c-0.3,2.1-1.3,4-2.5,5.7
				c-0.3,0.4-0.7,0.9-1,1.3l-11.8-5.4c-0.6-0.7-1.3-1.4-1.9-2.1c-0.8-0.9-1.6-1.8-2.4-2.8c-0.8-1-4.2-7.3-1.6-8.1
				c0.6-0.2,1.3,0.1,1.8,0.5c0.5,0.4,0.8,1,1.2,1.5c1,1.1,2.5,1.7,4,1.7c0.4,0,0.8-0.1,1.1-0.3c0.5-0.4,0.7-1,0.7-1.6
				c0-1.9-1.1-3.7-2.2-5.2c-1.3-1.7-2.1-3.5-3.2-5.3c-1.3-2-2.6-3.8-2.9-6.2c2.2-2.1,4.4,4.7,7.4,3.8c2.1-0.7,1.1-3.7-0.2-5.5
				c-2.8-4.1-4.6-8.8-5.7-13.6c-0.5-2.4-0.9-4.8-1.3-7.3c-0.1-1,0-6.2-2.3-4.8c-0.7,0.4-0.9,1.3-1.1,2.1c-0.9,4.1-1.8,8.2-2.8,12.2
				c-0.8,3.2-1.2,7.6-3.3,10.3c-1.1,1.5-2.5,2.6-2.4,4.6c0,0.2,0,0.3,0.1,0.5c0.1,0.2,0.4,0.3,0.6,0.4c2.4,0.8,4-0.9,5.5-2.5
				c0.2-0.2,0.4-0.4,0.7-0.5c0.3-0.1,0.6-0.1,0.8,0.1c0.5,0.5,0.1,2.1,0,2.7c-0.3,2.1-1.3,4-2.5,5.7c-2,2.7-4.6,5-6.2,8
				c-0.3,0.6-0.6,1.3-0.6,2c0.1,1.3,1.4,2,2.6,2.1c1.6,0.1,2.6-1.2,3.1-2.6c0.4-0.9,0.8-1.9,1.6-2.4c0.2-0.1,0.5-0.2,0.7,0
				c0.1,0.1,0.1,0.2,0.1,0.3c0.1,2-0.3,3.9-1.1,5.7c-0.2,0.3-0.4,0.7-0.5,1l-16.4-7.6c-0.1-2.5-1.6-5-3.1-6.8
				c-2.5-3-5.6-6.3-4.9-10.1c2.6,0.2,3.3,4.7,5.9,4.6c1.9,0,2.7-2.6,2.3-4.5c-0.9-4-4.2-6.8-6.6-9.8c-1.1-1.5-2.2-3-2.6-4.9
				c-0.1-0.5-0.7-2.1-0.4-2.5c0.6-1,1.6,0.3,1.9,0.8c0.5,0.9,1.1,1.7,1.7,2.6c0.5,0.6,1,1.3,1.7,1.7c0.7,0.4,1.5,0.6,2.3,0.3
				c1-0.4,1.4-1.6,1.5-2.6c0.1-1.6-0.6-3.2-1.5-4.6c-0.9-1.4-2.1-2.5-3.2-3.7c-0.8-0.9-1.6-1.8-2.4-2.8c-0.8-1-4.2-7.3-1.6-8.1
				c0.6-0.2,1.3,0.1,1.8,0.5c0.5,0.4,0.8,1,1.2,1.5c1,1.1,2.5,1.7,4,1.7c0.4,0,0.8-0.1,1.1-0.3c0.5-0.4,0.7-1,0.7-1.6
				c0-1.9-1.1-3.7-2.2-5.2c-1.3-1.7-2.1-3.5-3.2-5.3c-1.3-2-2.6-3.8-2.9-6.2c2.2-2.1,4.4,4.7,7.4,3.8c2.1-0.7,1.1-3.7-0.2-5.5
				c-2.8-4.1-4.6-8.8-5.7-13.6c-0.5-2.4-0.9-4.8-1.3-7.3c-0.1-1,0-6.2-2.3-4.8c-0.7,0.4-0.9,1.3-1.1,2.1c-0.9,4.1-1.8,8.2-2.8,12.2
				c-0.8,3.2-1.2,7.6-3.3,10.3c-1.1,1.5-2.5,2.6-2.4,4.6c0,0.2,0,0.3,0.1,0.5c0.1,0.2,0.4,0.3,0.6,0.4c2.4,0.8,4-0.9,5.5-2.5
				c0.2-0.2,0.4-0.4,0.7-0.5c0.3-0.1,0.6-0.1,0.8,0.1c0.5,0.5,0.1,2.1,0,2.7c-0.3,2.1-1.3,4-2.5,5.7c-2,2.7-4.6,5-6.2,8
				c-0.3,0.6-0.6,1.3-0.6,2c0.1,1.3,1.4,2,2.6,2.1c1.6,0.1,2.6-1.2,3.1-2.6c0.4-0.9,0.8-1.9,1.6-2.4c0.2-0.1,0.5-0.2,0.7,0
				c0.1,0.1,0.1,0.2,0.1,0.3c0.1,2-0.3,3.9-1.1,5.7c-0.9,1.9-2.2,3-3.7,4.4c-0.8,0.7-1.6,1.5-2.1,2.5c-0.4,0.7-0.6,1.5-0.5,2.3
				c0.1,0.8,0.6,1.5,1.3,1.8c1,0.4,2.2-0.2,2.9-0.9c0.4-0.4,2.5-3.8,3.3-2.5c0.3,0.5-0.3,2.3-0.4,2.9c-0.4,1.8-0.9,3.6-1.6,5.4
				c-1.4,3.5-3.6,6.8-6.2,9.5c-1.1,1.2-2.5,2.5-2.4,4.1c0.1,2.2,2.9,3.2,4.7,2.6c2.6-0.7,2.5-3.4,4.4-4.8c0.1-0.1,0.3-0.2,0.5-0.2
				c0.4,0.1,0.4,0.6,0.4,1c-0.5,2.8-1.4,5.4-2.7,7.9l-17.5-8.1c-0.7-0.9-1.5-1.7-2.3-2.6c-0.8-0.9-1.6-1.8-2.4-2.8
				c-0.8-1-4.2-7.3-1.6-8.1c0.6-0.2,1.3,0.1,1.8,0.5c0.5,0.4,0.8,1,1.2,1.5c1,1.1,2.5,1.7,4,1.7c0.4,0,0.8-0.1,1.1-0.3
				c0.5-0.4,0.7-1,0.7-1.6c0-1.9-1.1-3.7-2.2-5.2c-1.3-1.7-2.1-3.5-3.2-5.3c-1.3-2-2.6-3.8-2.9-6.2c2.2-2.1,4.4,4.7,7.4,3.8
				c2.1-0.7,1.1-3.7-0.2-5.5c-2.8-4.1-4.6-8.8-5.7-13.6c-0.5-2.4-0.9-4.8-1.3-7.3c-0.1-1,0-6.2-2.3-4.8c-0.7,0.4-0.9,1.3-1.1,2.1
				c-0.9,4.1-1.8,8.2-2.8,12.2c-0.8,3.2-1.2,7.6-3.3,10.3c-1.1,1.5-2.5,2.6-2.4,4.6c0,0.2,0,0.3,0.1,0.5c0.1,0.2,0.4,0.3,0.6,0.4
				c2.4,0.8,4-0.9,5.5-2.5c0.2-0.2,0.4-0.4,0.7-0.5c0.3-0.1,0.6-0.1,0.8,0.1c0.5,0.5,0.1,2.1,0,2.7c-0.3,2.1-1.3,4-2.5,5.7
				c-2,2.7-4.6,5-6.2,8c-0.3,0.6-0.6,1.3-0.6,2c0.1,1.3,1.4,2,2.6,2.1c1.6,0.1,2.6-1.2,3.1-2.6c0.4-0.9,0.8-1.9,1.6-2.4
				c0.2-0.1,0.5-0.2,0.7,0c0.1,0.1,0.1,0.2,0.1,0.3c0.1,2-0.3,3.9-1.1,5.7c-0.2,0.4-0.4,0.8-0.7,1.2l-20.2-9.3c-0.9-1-1.8-2-2.5-3
				c-1.1-1.5-2.2-3-2.6-4.9c-0.1-0.5-0.7-2.1-0.4-2.5c0.6-1,1.6,0.3,1.9,0.8c0.5,0.9,1.1,1.7,1.7,2.6c0.5,0.6,1,1.3,1.7,1.7
				c0.7,0.4,1.5,0.6,2.3,0.3c1-0.4,1.4-1.6,1.5-2.6c0.1-1.6-0.6-3.2-1.5-4.6c-0.9-1.4-2.1-2.5-3.2-3.7c-0.8-0.9-1.6-1.8-2.4-2.8
				c-0.8-1-4.2-7.3-1.6-8.1c0.6-0.2,1.3,0.1,1.8,0.5c0.5,0.4,0.8,1,1.2,1.5c1,1.1,2.5,1.7,4,1.7c0.4,0,0.8-0.1,1.1-0.3
				c0.5-0.4,0.7-1,0.7-1.6c0-1.9-1.1-3.7-2.2-5.2c-1.3-1.7-2.1-3.5-3.2-5.3c-1.3-2-2.6-3.8-2.9-6.2c2.2-2.1,4.4,4.7,7.4,3.8
				c2.1-0.7,1.1-3.7-0.2-5.5c-2.8-4.1-4.6-8.8-5.7-13.6c-0.5-2.4-0.9-4.8-1.3-7.3c-0.1-1,0-6.2-2.3-4.8c-0.7,0.4-0.9,1.3-1.1,2.1
				c-0.9,4.1-1.8,8.2-2.8,12.2c-0.8,3.2-1.2,7.6-3.3,10.3c-1.1,1.5-2.5,2.6-2.4,4.6c0,0.2,0,0.3,0.1,0.5c0.1,0.2,0.4,0.3,0.6,0.4
				c2.4,0.8,4-0.9,5.5-2.5c0.2-0.2,0.4-0.4,0.7-0.5c0.3-0.1,0.6-0.1,0.8,0.1c0.5,0.5,0.1,2.1,0,2.7c-0.3,2.1-1.3,4-2.5,5.7
				c-2,2.7-4.6,5-6.2,8c-0.3,0.6-0.6,1.3-0.6,2c0.1,1.3,1.4,2,2.6,2.1c1.6,0.1,2.6-1.2,3.1-2.6c0.4-0.9,0.8-1.9,1.6-2.4
				c0.2-0.1,0.5-0.2,0.7,0c0.1,0.1,0.1,0.2,0.1,0.3c0.1,2-0.3,3.9-1.1,5.7c-0.9,1.9-2.2,3-3.7,4.4c-0.8,0.7-1.6,1.5-2.1,2.5
				c-0.4,0.7-0.6,1.5-0.5,2.3c0.1,0.8,0.6,1.5,1.3,1.8c1,0.4,2.2-0.2,2.9-0.9c0.4-0.4,2.5-3.8,3.3-2.5c0.3,0.5-0.3,2.3-0.4,2.9
				c-0.3,1.6-0.8,3.1-1.4,4.6l-18.9-8.7c-0.8-1.1-1.8-2-2.7-3c-0.8-0.9-1.6-1.8-2.4-2.8c-0.8-1-4.2-7.3-1.6-8.1
				c0.6-0.2,1.3,0.1,1.8,0.5c0.5,0.4,0.8,1,1.2,1.5c1,1.1,2.5,1.7,4,1.7c0.4,0,0.8-0.1,1.1-0.3c0.5-0.4,0.7-1,0.7-1.6
				c0-1.9-1.1-3.7-2.2-5.2c-1.3-1.7-2.1-3.5-3.2-5.3c-1.3-2-2.6-3.8-2.9-6.2c2.2-2.1,4.4,4.7,7.4,3.8c2.1-0.7,1.1-3.7-0.2-5.5
				c-2.8-4.1-4.6-8.8-5.7-13.6c-0.5-2.4-0.9-4.8-1.3-7.3c-0.1-1,0-6.2-2.3-4.8c-0.7,0.4-0.9,1.3-1.1,2.1c-0.9,4.1-1.8,8.2-2.8,12.2
				c-0.8,3.2-1.2,7.6-3.3,10.3c-1.1,1.5-2.5,2.6-2.4,4.6c0,0.2,0,0.3,0.1,0.5c0.1,0.2,0.4,0.3,0.6,0.4c2.4,0.8,4-0.9,5.5-2.5
				c0.2-0.2,0.4-0.4,0.7-0.5c0.3-0.1,0.6-0.1,0.8,0.1c0.5,0.5,0.1,2.1,0,2.7c-0.3,2.1-1.3,4-2.5,5.7c-2,2.7-4.6,5-6.2,8
				c-0.3,0.6-0.6,1.3-0.6,2c0.1,1.3,1.4,2,2.6,2.1c1.6,0.1,2.6-1.2,3.1-2.6c0.4-0.9,0.8-1.9,1.6-2.4c0.2-0.1,0.5-0.2,0.7,0
				c0.1,0.1,0.1,0.2,0.1,0.3c0.1,2-0.3,3.9-1.1,5.7c-0.2,0.5-0.5,1-0.8,1.4l-21.8-10.1c-0.1-0.2-0.2-0.4-0.3-0.6
				c-1.3-2-2.6-3.8-2.9-6.2c2.2-2.1,4.4,4.7,7.4,3.8c2.1-0.7,1.1-3.7-0.2-5.5c-2.8-4.1-4.6-8.8-5.7-13.6c-0.5-2.4-0.9-4.8-1.3-7.3
				c-0.1-1,0-6.2-2.3-4.8c-0.7,0.4-0.9,1.3-1.1,2.1c-0.9,4.1-1.8,8.2-2.8,12.2c-0.8,3.2-1.2,7.6-3.3,10.3c-0.8,1-1.6,1.8-2.1,2.9
				L44.3,276c-1-1.7-1.7-3.5-1.3-5.4c2.6,0.2,3.3,4.7,5.9,4.6c1.9,0,2.7-2.6,2.3-4.5c-0.9-4-4.2-6.8-6.6-9.8c-1.1-1.5-2.2-3-2.6-4.9
				c-0.1-0.5-0.7-2.1-0.4-2.5c0.6-1,1.6,0.3,1.9,0.8c0.5,0.9,1.1,1.7,1.7,2.6c0.5,0.6,1,1.3,1.7,1.7c0.7,0.4,1.5,0.6,2.3,0.3
				c1-0.4,1.4-1.6,1.5-2.6c0.1-1.6-0.6-3.2-1.5-4.6c-0.9-1.4-2.1-2.5-3.2-3.7c-0.8-0.9-1.6-1.8-2.4-2.8c-0.8-1-4.2-7.3-1.6-8.1
				c0.6-0.2,1.3,0.1,1.8,0.5c0.5,0.4,0.8,1,1.2,1.5c1,1.1,2.5,1.7,4,1.7c0.4,0,0.8-0.1,1.1-0.3c0.5-0.4,0.7-1,0.7-1.6
				c0-1.9-1.1-3.7-2.2-5.2c-1.3-1.7-2.1-3.5-3.2-5.3c-1.3-2-2.6-3.8-2.9-6.2c2.2-2.1,4.4,4.7,7.4,3.8c2.1-0.7,1.1-3.7-0.2-5.5
				c-2.8-4.1-4.6-8.8-5.7-13.6c-0.5-2.4-0.9-4.8-1.3-7.3c-0.1-1,0-6.2-2.3-4.8c-0.7,0.4-0.9,1.3-1.1,2.1c-0.9,4.1-1.8,8.2-2.8,12.2
				c-0.8,3.2-1.2,7.6-3.3,10.3c-1.1,1.5-2.5,2.6-2.4,4.6c0,0.2,0,0.3,0.1,0.5c0.1,0.2,0.4,0.3,0.6,0.4c2.4,0.8,4-0.9,5.5-2.5
				c0.2-0.2,0.4-0.4,0.7-0.5c0.3-0.1,0.6-0.1,0.8,0.1c0.5,0.5,0.1,2.1,0,2.7c-0.3,2.1-1.3,4-2.5,5.7c-2,2.7-4.6,5-6.2,8
				c-0.3,0.6-0.6,1.3-0.6,2c0.1,1.3,1.4,2.1,2.6,2.1c1.6,0.1,2.6-1.2,3.1-2.6c0.4-0.9,0.8-1.9,1.6-2.4c0.2-0.1,0.5-0.2,0.7,0
				c0.1,0.1,0.1,0.2,0.1,0.3c0.1,2-0.3,3.9-1.1,5.7c-0.9,1.9-2.2,3-3.7,4.4c-0.8,0.7-1.6,1.5-2.1,2.5c-0.4,0.7-0.6,1.5-0.5,2.3
				c0.1,0.8,0.6,1.5,1.3,1.8c1,0.4,2.2-0.2,2.9-0.9c0.4-0.4,2.5-3.8,3.3-2.5c0.3,0.5-0.3,2.3-0.4,2.9c-0.4,1.8-0.9,3.6-1.6,5.4
				c-1.4,3.5-3.6,6.8-6.2,9.5c0,0,0,0-0.1,0.1L17,263.4c-0.9-1.3-2.1-2.5-3.2-3.7c-0.8-0.9-1.6-1.8-2.4-2.8c-0.8-1-4.2-7.3-1.6-8.1
				c0.6-0.2,1.3,0.1,1.8,0.5c0.5,0.4,0.8,1,1.2,1.5c1,1.1,2.5,1.7,4,1.7c0.4,0,0.8-0.1,1.1-0.3c0.5-0.4,0.7-1,0.7-1.6
				c0-1.9-1.1-3.7-2.2-5.2c-1.3-1.7-2.1-3.5-3.2-5.3c-1.3-2-2.6-3.8-2.9-6.2c2.2-2.1,4.4,4.7,7.4,3.8c2.1-0.7,1.1-3.7-0.2-5.5
				c-2.8-4.1-4.6-8.8-5.7-13.6c-0.5-2.4-0.9-4.8-1.3-7.3c-0.1-1,0-6.2-2.3-4.8c-0.7,0.4-0.9,1.3-1.1,2.1c-0.9,4.1-1.8,8.2-2.8,12.2
				C3.4,224,3,228.3,0.9,231c-1.1,1.5-2.5,2.6-2.4,4.6c0,0.2,0,0.3,0.1,0.5c0.1,0.2,0.4,0.3,0.6,0.4c2.4,0.8,4-0.9,5.5-2.5
				c0.2-0.2,0.4-0.4,0.7-0.5c0.3-0.1,0.6-0.1,0.8,0.1c0.5,0.5,0.1,2.1,0,2.7c-0.3,2.1-1.3,4-2.5,5.7c-2,2.7-4.6,5-6.2,8
				c-0.3,0.6-0.6,1.3-0.6,2c0.1,1.3,1.4,2,2.6,2.1c1.6,0.1,2.6-1.2,3.1-2.6c0.4-0.9,0.8-1.9,1.6-2.4c0.2-0.1,0.5-0.2,0.7,0
				c0.1,0.1,0.1,0.2,0.1,0.3c0.1,2-0.3,3.9-1.1,5.7c-0.3,0.7-0.7,1.2-1.1,1.7l-16.8-7.8v563.3h1106V505.5V499V354.9H1077.4z
				 M399.2,438.4c0.6-1,1.6,0.3,1.9,0.8c0.5,0.8,1,1.6,1.6,2.4l-3.3-1.5C399.2,439.4,399,438.6,399.2,438.4z M394.9,435.8
				c0.2,0.3,0,1.3-0.2,2.1l-2-0.9C393.4,436,394.4,435,394.9,435.8z M354.1,415.4c0.4-0.9,0.8-1.9,1.6-2.4c0.2-0.1,0.5-0.2,0.7,0
				c0.1,0.1,0.1,0.2,0.1,0.3c0.1,2-0.3,3.9-1.1,5.7c-0.1,0.2-0.2,0.3-0.3,0.5l-3.6-1.6C352.8,417.8,353.6,416.7,354.1,415.4z
				 M68.7,284.6c0.2-0.2,0.4-0.4,0.7-0.5c0.3-0.1,0.6-0.1,0.8,0.1c0.5,0.5,0.1,2.1,0,2.7c0,0.3-0.1,0.6-0.2,0.9l-3.2-1.5
				C67.5,285.9,68.1,285.2,68.7,284.6z M35.6,270.7c0.1-0.1,0.3-0.2,0.5-0.2c0.4,0.1,0.4,0.6,0.4,1c0,0.3-0.1,0.5-0.2,0.8l-1.5-0.7
				C35,271.3,35.3,271,35.6,270.7z M1068.7,353.1c0.6-0.2,1.3,0.1,1.8,0.5c0.4,0.4,0.7,0.8,1.1,1.3h-3.7
				C1067.7,354.1,1068,353.4,1068.7,353.1z M1063.2,353.4c0.2-0.1,0.5-0.2,0.7,0c0.1,0.1,0.1,0.2,0.1,0.3c0,0.4,0,0.8,0,1.1h-2
				C1062.3,354.3,1062.7,353.7,1063.2,353.4z M784.9,464.4l-1.1,1.1h-0.4c-0.3-0.9-0.6-1.8-0.7-2.7
				C783.5,463.3,784.2,463.9,784.9,464.4z M771.2,463.6c1.2-1.9,3.4-4.2,5.2-2.8c-0.1,1.8-1.3,3.4-2.8,4.7h-4
				C770.2,464.9,770.8,464.3,771.2,463.6z M670.5,463.3c0.6-0.2,1.3,0.1,1.8,0.5c0.5,0.4,0.8,1,1.2,1.5c0.1,0.1,0.3,0.3,0.4,0.4
				l-3.9,1.4C669.4,465.4,669.3,463.8,670.5,463.3z M642.4,473.9c1.2,0.1,2,1.1,2.7,2.2l-2.5,0.9
				C642.3,475.9,642.2,474.9,642.4,473.9z"/>
			<path id="XMLID_99_" class="st8" d="M990.6,529c1.4-0.1,2.7-0.8,3.4-2c1.9-3.2-1.6-6.7-4.1-9.3c-3.2-3.3-5.6-7.4-6.7-11.9
				c1.5,1.9,3.2,3.6,5.1,5c1.4,1,2.9,0.9,3.4-1c0.2-0.8,0.2-1.6,0.1-2.4c-0.2-1.7-0.5-3.4-1.2-5c-1.2-2.7-3.5-4.7-5.4-7
				c-1.9-2.3-3.5-5.2-2.9-8.1c0.1-0.5,0.3-0.9,0.7-1.2c0.7-0.3,1.5,0.2,1.9,0.9c0.8,1.4,0.9,2.4,2.7,1.9c1.3-0.4,2.1-1.9,2.1-3.2
				c0-1.1-0.6-2-1.1-3c-2.8-4.8-8.3-9.2-7.4-15.4c0.1-0.4,0.2-0.9,0.5-1.2c0.8-0.7,2.1,0.2,2.7,1.1c0.6,0.9,1.5,2,2.6,1.6
				c1-0.4,1-1.8,0.7-2.8c-1.2-4.7-4.1-8.6-6.1-13c-0.5-1.1-1-2.4-0.8-3.6c0-0.2,0.1-0.5,0.2-0.7c0.3-0.4,1.1-0.4,1.5,0
				c1,0.9,1.1,2.6,2.7,2.8c1.5,0.2,2.7-1.6,2.6-3.1c-0.1-1.5-1.1-2.8-1.9-4.1c-6-9.6-6-22.2-9.6-32.7c-0.1-0.4-0.3-0.8-0.6-1.1
				c-0.7-0.5-1.7,0-2.1,0.8c-0.4,0.8-0.2,1.7-0.1,2.5c0.9,7.2-0.5,14.5-1.8,21.7c-0.5,2.7-1,5.5-2,8.1c-1.2,3.4-3.1,6.4-4.4,9.8
				c-0.7,1.7-0.9,4.2,0.9,4.7c2.1,0.7,3.7-2.7,5.9-2.7c3.7,0.1,0.8,5.1,0.1,6.5c-1.6,3.3-4.3,6.4-4.4,10.2c0,0.5,0,1.1,0.3,1.5
				c2,3.1,4.7-1.9,5.6-3.1c0.4-0.6,1.2-1,1.8-0.6c0.6,0.4,0.6,1.2,0.5,1.8c-0.8,7.7-8.7,12.3-10.8,19.6c-0.3,0.9-0.4,1.9,0,2.8
				c1,2,4,1.4,5.6-0.1c1.1-1.1,1.8-2.5,2.9-3.6c1.1-1.1,3.2-1.7,2.7,0.8c-0.2,0.9-0.8,1.6-1.4,2.2c-1.7,1.9-3.4,3.8-5.3,5.5
				c-1,0.9-2,1.7-2.7,2.8c-0.9,1.3-1.5,2.8-2,4.4c-0.5,1.4-0.8,3.1,0.3,4c0.7,0.6,1.7,0.6,2.5,0.2c0.8-0.4,1.4-1,2-1.7
				c0.9-1.1,1.8-2.3,2.5-3.6c0.4-0.3,1.1,0,1.3,0.5c0.2,0.5,0.2,1,0.1,1.5c-0.7,4.3-2.7,6.2-5.7,8.9c-3.2,2.9-7,6-7.5,10.3
				c-0.1,0.8,0,1.6,0.3,2.3h-30.8l-22.4,12.8c-0.8-1-1.8-2-2.6-2.9c-3.2-3.3-5.6-7.4-6.7-11.9c1.5,1.9,3.2,3.6,5.1,5
				c1.4,1,2.9,0.9,3.4-1c0.2-0.8,0.2-1.6,0.1-2.4c-0.2-1.7-0.5-3.4-1.2-5c-1.2-2.7-3.5-4.7-5.4-7c-1.9-2.3-3.5-5.2-2.9-8.1
				c0.1-0.5,0.3-0.9,0.7-1.2c0.7-0.3,1.5,0.2,1.9,0.9c0.8,1.4,0.9,2.4,2.7,1.9c1.3-0.4,2.1-1.9,2.1-3.2c0-1.1-0.6-2-1.1-3
				c-2.8-4.8-8.3-9.2-7.4-15.4c0.1-0.4,0.2-0.9,0.5-1.2c0.8-0.7,2.1,0.2,2.7,1.1c0.6,0.9,1.5,2,2.6,1.6c1-0.4,1-1.8,0.7-2.8
				c-1.2-4.7-4.1-8.6-6.1-13c-0.5-1.1-1-2.4-0.8-3.6c0-0.2,0.1-0.5,0.2-0.7c0.3-0.4,1.1-0.4,1.5,0c1,0.9,1.1,2.6,2.7,2.8
				c1.5,0.2,2.7-1.6,2.6-3.1c-0.1-1.5-1.1-2.8-1.9-4.1c-6-9.6-6-22.2-9.6-32.7c-0.1-0.4-0.3-0.8-0.6-1.1c-0.7-0.5-1.7,0-2.1,0.8
				c-0.4,0.8-0.2,1.7-0.1,2.5c0.9,7.2-0.5,14.5-1.8,21.7c-0.5,2.7-1,5.5-2,8.1c-1.2,3.4-3.1,6.4-4.4,9.8c-0.7,1.7-0.9,4.2,0.9,4.7
				c2.1,0.7,3.7-2.7,5.9-2.7c3.7,0.1,0.8,5.1,0.1,6.5c-1.6,3.3-4.3,6.4-4.4,10.2c0,0.5,0,1.1,0.3,1.5c2,3.1,4.7-1.9,5.6-3.1
				c0.4-0.6,1.2-1,1.8-0.6c0.6,0.4,0.6,1.2,0.5,1.8c-0.8,7.7-8.7,12.3-10.8,19.6c-0.3,0.9-0.4,1.9,0,2.8c1,2,4,1.4,5.6-0.1
				c1.1-1.1,1.8-2.5,2.9-3.6c1.1-1.1,3.2-1.7,2.7,0.8c-0.2,0.9-0.8,1.6-1.4,2.2c-1.7,1.9-3.4,3.8-5.3,5.5c-1,0.9-2,1.7-2.7,2.8
				c-0.9,1.3-1.5,2.8-2,4.4c-0.5,1.4-0.8,3.1,0.3,4c0.7,0.6,1.7,0.6,2.5,0.2c0.8-0.4,1.4-1,2-1.7c0.9-1.1,1.8-2.3,2.5-3.6
				c0.4-0.3,1.1,0,1.3,0.5c0.2,0.5,0.2,1,0.1,1.5c-0.7,4.3-2.7,6.2-5.7,8.9c-3.2,2.9-7,6-7.5,10.3c-0.1,1,0,2.1,0.7,2.8
				c1.9,2.2,5.4-0.4,6.9-2.9c1.5-2.5,4.4-5.5,6.8-3.7c-0.2,3.5-3.5,6.3-6.2,8c-2.9,1.8-4.8,3.6-5.7,6.8l-15.6,8.9H784
				c-0.3-0.4-0.7-0.8-1-1.2c-0.8-1-4.2-7.3-1.6-8.1c0.6-0.2,1.3,0.1,1.8,0.5c0.5,0.4,0.8,1,1.2,1.5c1,1.1,2.5,1.7,4,1.7
				c0.4,0,0.8-0.1,1.1-0.3c0.5-0.4,0.7-1,0.7-1.6c0-1.9-1.1-3.7-2.2-5.2c-1.3-1.7-2.1-3.5-3.2-5.3c-1.3-2-2.6-3.8-2.9-6.2
				c2.2-2.1,4.4,4.7,7.4,3.8c2.1-0.7,1.1-3.7-0.2-5.5c-2.8-4.1-4.6-8.8-5.7-13.6c-0.5-2.4-0.9-4.8-1.3-7.3c-0.1-1,0-6.2-2.3-4.8
				c-0.7,0.4-0.9,1.3-1.1,2.1c-0.9,4.1-1.8,8.2-2.8,12.2c-0.8,3.2-1.2,7.6-3.3,10.3c-1.1,1.5-2.5,2.6-2.4,4.6c0,0.2,0,0.3,0.1,0.5
				c0.1,0.2,0.4,0.3,0.6,0.4c2.4,0.8,4-0.9,5.5-2.5c0.2-0.2,0.4-0.4,0.7-0.5c0.3-0.1,0.6-0.1,0.8,0.1c0.5,0.5,0.1,2.1,0,2.7
				c-0.3,2.1-1.3,4-2.5,5.7c-2,2.7-4.6,5-6.2,8c-0.3,0.6-0.6,1.3-0.6,2c0.1,1.3,1.4,2.1,2.6,2.1c1.6,0.1,2.6-1.2,3.1-2.6
				c0.4-0.9,0.8-1.9,1.6-2.4c0.2-0.1,0.5-0.2,0.7,0c0.1,0.1,0.1,0.2,0.1,0.3c0.1,2-0.3,3.9-1.1,5.7c-0.6,1.2-1.3,2.1-2.2,3h-26.1
				c-0.6-1.4-1-2.9-1.2-4.4c1.6,1.4,3.3,2.8,5.3,3.4c2,0.6,4.6,0,5.6-1.8c1.9-3.2-1.6-6.7-4.1-9.3c-3.2-3.3-5.6-7.4-6.7-11.9
				c1.5,1.9,3.2,3.6,5.1,5c1.4,1,2.9,0.9,3.4-1c0.2-0.8,0.2-1.6,0.1-2.4c-0.2-1.7-0.5-3.4-1.2-5c-1.2-2.7-3.5-4.7-5.4-7
				c-1.9-2.3-3.5-5.2-2.9-8.1c0.1-0.5,0.3-0.9,0.7-1.2c0.7-0.3,1.5,0.2,1.9,0.9c0.8,1.4,0.9,2.4,2.7,1.9c1.3-0.4,2.1-1.9,2.1-3.2
				c0-1.1-0.6-2-1.1-3c-2.8-4.8-8.3-9.2-7.4-15.4c0.1-0.4,0.2-0.9,0.5-1.2c0.8-0.7,2.1,0.2,2.7,1.1c0.6,0.9,1.5,2,2.6,1.6
				c1-0.4,1-1.8,0.7-2.8c-1.2-4.7-4.1-8.6-6.1-13c-0.5-1.1-1-2.4-0.8-3.6c0-0.2,0.1-0.5,0.2-0.7c0.3-0.4,1.1-0.4,1.5,0
				c1,0.9,1.1,2.6,2.7,2.8c1.5,0.2,2.7-1.6,2.6-3.1c-0.1-1.5-1.1-2.8-1.9-4.1c-6-9.6-6-22.2-9.6-32.7c-0.1-0.4-0.3-0.8-0.6-1.1
				c-0.7-0.5-1.7,0-2.1,0.8c-0.4,0.8-0.2,1.7-0.1,2.5c0.9,7.2-0.5,14.5-1.8,21.7c-0.5,2.7-1,5.5-2,8.1c-1.2,3.4-3.1,6.4-4.4,9.8
				c-0.7,1.7-0.9,4.2,0.9,4.7c2.1,0.7,3.7-2.7,5.9-2.7c3.7,0.1,0.8,5.1,0.1,6.5c-1.6,3.3-4.3,6.4-4.4,10.2c0,0.5,0,1.1,0.3,1.5
				c2,3.1,4.7-1.9,5.6-3.1c0.4-0.6,1.2-1,1.8-0.6c0.6,0.4,0.6,1.2,0.5,1.8c-0.8,7.7-8.7,12.3-10.8,19.6c-0.3,0.9-0.4,1.9,0,2.8
				c1,2,4,1.4,5.6-0.1c1.1-1.1,1.8-2.5,2.9-3.6c1.1-1.1,3.2-1.7,2.7,0.8c-0.2,0.9-0.8,1.6-1.4,2.2c-1.7,1.9-3.4,3.8-5.3,5.5
				c-1,0.9-2,1.7-2.7,2.8c-0.9,1.3-1.5,2.8-2,4.4c-0.5,1.4-0.8,3.1,0.3,4c0.7,0.6,1.7,0.6,2.5,0.2c0.8-0.4,1.4-1,2-1.7
				c0.9-1.1,1.8-2.3,2.5-3.6c0.4-0.3,1.1,0,1.3,0.5c0.2,0.5,0.2,1,0.1,1.5c-0.7,4.3-2.7,6.2-5.7,8.9c-3.2,2.9-7,6-7.5,10.3
				c-0.1,1,0,2.1,0.7,2.8c0.1,0.1,0.2,0.2,0.3,0.3h-10.9c-1.2-1.5-2.5-2.9-3.7-4.3c-1.1-1.5-2.2-3-2.6-4.9c-0.1-0.5-0.7-2.1-0.4-2.5
				c0.6-1,1.6,0.3,1.9,0.8c0.5,0.9,1.1,1.7,1.7,2.6c0.5,0.6,1,1.3,1.7,1.7c0.7,0.4,1.5,0.6,2.3,0.3c1-0.4,1.4-1.6,1.5-2.6
				c0.1-1.6-0.6-3.2-1.5-4.6c-0.9-1.4-2.1-2.5-3.2-3.7c-0.8-0.9-1.6-1.8-2.4-2.8c-0.8-1-4.2-7.3-1.6-8.1c0.6-0.2,1.3,0.1,1.8,0.5
				s0.8,1,1.2,1.5c1,1.1,2.5,1.7,4,1.7c0.4,0,0.8-0.1,1.1-0.3c0.5-0.4,0.7-1,0.7-1.6c0-1.9-1.1-3.7-2.2-5.2
				c-1.3-1.7-2.1-3.5-3.2-5.3c-1.3-2-2.6-3.8-2.9-6.2c2.2-2.1,4.4,4.7,7.4,3.8c2.1-0.7,1.1-3.7-0.2-5.5c-2.8-4.1-4.6-8.8-5.7-13.6
				c-0.5-2.4-0.9-4.8-1.3-7.3c-0.1-1,0-6.2-2.3-4.8c-0.7,0.4-0.9,1.3-1.1,2.1c-0.9,4.1-1.8,8.2-2.8,12.2c-0.8,3.2-1.2,7.6-3.3,10.3
				c-1.1,1.5-2.5,2.6-2.4,4.6c0,0.2,0,0.3,0.1,0.5c0.1,0.2,0.4,0.3,0.6,0.4c2.4,0.8,4-0.9,5.5-2.5c0.2-0.2,0.4-0.4,0.7-0.5
				c0.3-0.1,0.6-0.1,0.8,0.1c0.5,0.5,0.1,2.1,0,2.7c-0.3,2.1-1.3,4-2.5,5.7c-2,2.7-4.6,5-6.2,8c-0.3,0.6-0.6,1.3-0.6,2
				c0.1,1.3,1.4,2,2.6,2.1c1.6,0.1,2.6-1.2,3.1-2.6c0.4-0.9,0.8-1.9,1.6-2.4c0.2-0.1,0.5-0.2,0.7,0c0.1,0.1,0.1,0.2,0.1,0.3
				c0.1,2-0.3,3.9-1.1,5.7c-0.9,1.9-2.2,3-3.7,4.4c-0.8,0.7-1.6,1.5-2.1,2.5c-0.4,0.7-0.6,1.5-0.5,2.3c0.1,0.8,0.6,1.5,1.3,1.8
				c1,0.4,2.2-0.2,2.9-0.9c0.4-0.4,2.5-3.8,3.3-2.5c0.3,0.5-0.3,2.3-0.4,2.9c-0.4,1.8-0.9,3.6-1.6,5.4c-0.1,0.2-0.2,0.3-0.2,0.5
				l-14.7-14.7h-103c0.5-0.9,0.6-2.1,0.4-3.2c-0.9-4-4.2-6.8-6.6-9.8c-1.1-1.5-2.2-3-2.6-4.9c-0.1-0.5-0.7-2.1-0.4-2.5
				c0.6-1,1.6,0.3,1.9,0.8c0.5,0.9,1.1,1.7,1.7,2.6c0.5,0.6,1,1.3,1.7,1.7c0.7,0.4,1.5,0.6,2.3,0.3c1-0.4,1.4-1.6,1.5-2.6
				c0.1-1.6-0.6-3.2-1.5-4.6c-0.9-1.4-2.1-2.5-3.2-3.7c-0.8-0.9-1.6-1.8-2.4-2.8c-0.8-1-4.2-7.3-1.6-8.1c0.6-0.2,1.3,0.1,1.8,0.5
				c0.5,0.4,0.8,1,1.2,1.5c1,1.1,2.5,1.7,4,1.7c0.4,0,0.8-0.1,1.1-0.3c0.5-0.4,0.7-1,0.7-1.6c0-1.9-1.1-3.7-2.2-5.2
				c-1.3-1.7-2.1-3.5-3.2-5.3c-1.3-2-2.6-3.8-2.9-6.2c2.2-2.1,4.4,4.7,7.4,3.8c2.1-0.7,1.1-3.7-0.2-5.5c-2.8-4.1-4.6-8.8-5.7-13.6
				c-0.5-2.4-0.9-4.8-1.3-7.3c-0.1-1,0-6.2-2.3-4.8c-0.7,0.4-0.9,1.3-1.1,2.1c-0.9,4.1-1.8,8.2-2.8,12.2c-0.8,3.2-1.2,7.6-3.3,10.3
				c-1.1,1.5-2.5,2.6-2.4,4.6c0,0.2,0,0.3,0.1,0.5c0.1,0.2,0.4,0.3,0.6,0.4c2.4,0.8,4-0.9,5.5-2.5c0.2-0.2,0.4-0.4,0.7-0.5
				c0.3-0.1,0.6-0.1,0.8,0.1c0.5,0.5,0.1,2.1,0,2.7c-0.3,2.1-1.3,4-2.5,5.7c-2,2.7-4.6,5-6.2,8c-0.3,0.6-0.6,1.3-0.6,2
				c0.1,1.3,1.4,2,2.6,2.1c1.6,0.1,2.6-1.2,3.1-2.6c0.4-0.9,0.8-1.9,1.6-2.4c0.2-0.1,0.5-0.2,0.7,0c0.1,0.1,0.1,0.2,0.1,0.3
				c0.1,2-0.3,3.9-1.1,5.7c-0.9,1.9-2.2,3-3.7,4.4c-0.8,0.7-1.6,1.5-2.1,2.5c-0.4,0.7-0.6,1.5-0.5,2.3c0.1,0.8,0.6,1.5,1.3,1.8
				c1,0.4,2.2-0.2,2.9-0.9c0.4-0.4,2.5-3.8,3.3-2.5c0.3,0.5-0.3,2.3-0.4,2.9c-0.4,1.8-0.9,3.6-1.6,5.4c-1.4,3.5-3.6,6.8-6.2,9.5
				c-1.1,1.2-2.5,2.5-2.4,4.1c0,0.4,0.1,0.7,0.3,1H527L492.5,529H348l-3.1,0.6c-1.3-3.1-4-5.6-6.1-8.2c-1.1-1.5-2.2-3-2.6-4.9
				c-0.1-0.5-0.7-2.1-0.4-2.5c0.6-1,1.6,0.3,1.9,0.8c0.5,0.9,1.1,1.7,1.7,2.6c0.5,0.6,1,1.3,1.7,1.7c0.7,0.4,1.5,0.6,2.3,0.3
				c1-0.4,1.4-1.6,1.5-2.6c0.1-1.6-0.6-3.2-1.5-4.6c-0.9-1.4-2.1-2.5-3.2-3.7c-0.8-0.9-1.6-1.8-2.4-2.8c-0.8-1-4.2-7.3-1.6-8.1
				c0.6-0.2,1.3,0.1,1.8,0.5c0.5,0.4,0.8,1,1.2,1.5c1,1.1,2.5,1.7,4,1.7c0.4,0,0.8-0.1,1.1-0.3c0.5-0.4,0.7-1,0.7-1.6
				c0-1.9-1.1-3.7-2.2-5.2c-1.3-1.7-2.1-3.5-3.2-5.3c-1.3-2-2.6-3.8-2.9-6.2c2.2-2.1,4.4,4.7,7.4,3.8c2.1-0.7,1.1-3.7-0.2-5.5
				c-2.8-4.1-4.6-8.8-5.7-13.6c-0.5-2.4-0.9-4.8-1.3-7.3c-0.1-1,0-6.2-2.3-4.8c-0.7,0.4-0.9,1.3-1.1,2.1c-0.9,4.1-1.8,8.2-2.8,12.2
				c-0.8,3.2-1.2,7.6-3.3,10.3c-1.1,1.5-2.5,2.6-2.4,4.6c0,0.2,0,0.3,0.1,0.5c0.1,0.2,0.4,0.3,0.6,0.4c2.4,0.8,4-0.9,5.5-2.5
				c0.2-0.2,0.4-0.4,0.7-0.5c0.3-0.1,0.6-0.1,0.8,0.1c0.5,0.5,0.1,2.1,0,2.7c-0.3,2.1-1.3,4-2.5,5.7c-2,2.7-4.6,5-6.2,8
				c-0.3,0.6-0.6,1.3-0.6,2c0.1,1.3,1.4,2,2.6,2.1c1.6,0.1,2.6-1.2,3.1-2.6c0.4-0.9,0.8-1.9,1.6-2.4c0.2-0.1,0.5-0.2,0.7,0
				c0.1,0.1,0.1,0.2,0.1,0.3c0.1,2-0.3,3.9-1.1,5.7c-0.9,1.9-2.2,3-3.7,4.4c-0.8,0.7-1.6,1.5-2.1,2.5c-0.4,0.7-0.6,1.5-0.5,2.3
				c0.1,0.8,0.6,1.5,1.3,1.8c1,0.4,2.2-0.2,2.9-0.9c0.4-0.4,2.5-3.8,3.3-2.5c0.3,0.5-0.3,2.3-0.4,2.9c-0.4,1.8-0.9,3.6-1.6,5.4
				c-1.4,3.5-3.6,6.8-6.2,9.5c-1.1,1.2-2.5,2.5-2.4,4.1c0,0.3,0.1,0.5,0.2,0.7l-71.2,13.5H-13.9v201.2h1106V529H990.6z M330.7,532
				c0,0.1,0,0.2-0.1,0.3l-2,0.4c0.3-0.5,0.7-1,1.3-1.4c0.1-0.1,0.3-0.2,0.5-0.2C330.7,531.1,330.8,531.6,330.7,532z M567.9,545.2
				c-0.1,0.8-0.3,1.6-0.5,2.4h-2.6c0.7-1.1,1.2-2.4,2.3-3.2c0.1-0.1,0.3-0.2,0.5-0.2C568,544.3,568,544.8,567.9,545.2z M574.8,547.6
				c-0.4-1.1-0.5-2.2-0.3-3.3c1.7,0.1,2.5,2,3.6,3.3H574.8z M733,567.8h-5.4c1.3-0.7,2.5-2,3.3-3.2c1.5-2.5,4.4-5.5,6.8-3.7
				C737.5,563.7,735.3,566.1,733,567.8z M898,547.1c0-0.2-0.1-0.4-0.1-0.5c0.1,0.1,0.3,0.2,0.4,0.4L898,547.1z M971,529h-5.3
				c0.8-0.7,1.6-1.5,2.1-2.4c1.5-2.5,4.4-5.5,6.8-3.7C974.5,525.3,972.9,527.3,971,529z M983.9,529c-0.4-1.1-0.7-2.3-0.9-3.6
				c1.6,1.4,3.3,2.8,5.3,3.4c0.3,0.1,0.7,0.1,1,0.2H983.9z"/>
			<path id="XMLID_94_" class="st9" d="M1064.9,681.9c-0.2-1.3-0.7-2.6-1.4-3.7c-0.9-1.4-2.1-2.5-3.2-3.7c-0.8-0.9-1.6-1.8-2.4-2.8
				c-0.8-1-4.2-7.3-1.6-8.1c0.6-0.2,1.3,0.1,1.8,0.5c0.5,0.4,0.8,1,1.2,1.5c1,1.1,2.5,1.7,4,1.7c0.4,0,0.8-0.1,1.1-0.3
				c0.5-0.4,0.7-1,0.7-1.6c0-1.9-1.1-3.7-2.2-5.2c-1.3-1.7-2.1-3.5-3.2-5.3c-1.3-2-2.6-3.8-2.9-6.2c2.2-2.1,4.4,4.7,7.4,3.8
				c2.1-0.7,1.1-3.7-0.2-5.5c-2.8-4.1-4.6-8.8-5.7-13.6c-0.5-2.4-0.9-4.8-1.3-7.3c-0.1-1,0-6.2-2.3-4.8c-0.7,0.4-0.9,1.3-1.1,2.1
				c-0.9,4.1-1.8,8.2-2.8,12.2c-0.8,3.2-1.2,7.6-3.3,10.3c-1.1,1.5-2.5,2.6-2.4,4.6c0,0.2,0,0.3,0.1,0.5c0.1,0.2,0.4,0.3,0.6,0.4
				c2.4,0.8,4-0.9,5.5-2.5c0.2-0.2,0.4-0.4,0.7-0.5c0.3-0.1,0.6-0.1,0.8,0.1c0.5,0.5,0.1,2.1,0,2.7c-0.3,2.1-1.3,4-2.5,5.7
				c-2,2.7-4.6,5-6.2,8c-0.3,0.6-0.6,1.3-0.6,2c0.1,1.3,1.4,2,2.6,2.1c1.6,0.1,2.6-1.2,3.1-2.6c0.4-0.9,0.8-1.9,1.6-2.4
				c0.2-0.1,0.5-0.2,0.7,0c0.1,0.1,0.1,0.2,0.1,0.3c0.1,2-0.3,3.9-1.1,5.7c-0.9,1.9-2.2,3-3.7,4.4c-0.8,0.7-1.6,1.5-2.1,2.5
				c-0.4,0.7-0.6,1.5-0.5,2.3c0.1,0.8,0.6,1.5,1.3,1.8c1,0.4,2.2-0.2,2.9-0.9c0.4-0.4,2.5-3.8,3.3-2.5c0.3,0.5-0.3,2.3-0.4,2.9
				c-0.1,0.5-0.3,1-0.4,1.5h-14.1c0.6-0.3,1-0.7,1.2-1.3c0.2-0.6,0.2-1.2,0.1-1.8c-0.5-4.1-2.4-8-5.3-10.9c-1.5-1.6-3.3-2.9-4.8-4.4
				c-1-1.1-5.1-8.1-0.9-7.9c0.5,0,1,0.3,1.4,0.7c1,0.9,1.7,2.2,2.6,3.2c0.9,1,2.4,1.7,3.7,1.1c1.7-0.8,1.6-3.3,1-5.2
				c-1.2-3.8-3.4-7.4-5.9-10.5c-2.3-2.8-6.4-5.8-5.1-9.9c0.2-0.5,0.4-1.1,0.9-1.4c0.7-0.6,1.8-0.5,2.6,0c0.8,0.4,1.4,1.2,2,1.9
				c0.9,1.1,4.6,7.1,6.2,3.8c0.2-0.4,0.2-1,0.2-1.5c-0.3-4.7-1.8-9.4-4.5-13.3c-2.5-3.6-5.8-6.6-7.5-10.6c-1-2.4-1.1-6.7,2.2-6.7
				c2.8-0.1,4.8,3.3,7,4.5c1.7,1,4.5,0.8,5.1-1.1c0.2-0.8,0-1.6-0.2-2.3c-1.3-4.3-3.7-8.6-6.9-11.8c-3.1-3.1-5.6-4.8-7.4-9.2
				c-0.7-1.6-1-3.9,0.5-4.8c1.1-0.7,2.7-0.2,3.7,0.7c1,0.9,1.7,2.1,2.7,3c1,0.9,2.6,1.4,3.7,0.7c0.9-0.6,1.2-1.8,1-2.9
				c-0.2-1.1-0.8-2-1.3-2.9c-1.9-3-3.9-5.9-5.7-8.9c-1.4-2.3-3.9-5.3-4.3-8c-0.1-1,0.1-2.1,0.9-2.5c0.6-0.3,1.4-0.1,1.9,0.4
				c0.5,0.4,1,1,1.4,1.4c1,1,2.3,1.6,3.7,1.8c0.9,0.1,2,0,2.6-0.7c0.5-0.6,0.6-1.4,0.5-2.2c-0.3-3.2-2.8-5.6-5.1-7.7
				c-1.4-1.3-8.7-10.3-5.4-12.1c2.6-1.4,6.1,6.8,8.8,3.4c0.8-0.9,0.7-2.3,0.3-3.4c-0.4-1.2-1.2-2.4-2.2-3.2c-1.3-1-2.8-1.6-4.2-2.5
				c-1.8-1.1-6.3-7.1-3-8.7c2.5-1.2,4.2,2.5,6.1,3.5c0.6,0.3,1.5,0.4,1.9-0.1c0,0,0.1-0.1,0.1-0.1c0.2-0.2,0.2-0.5,0.2-0.8
				c0.3-3.9-1.8-7.6-3.9-10.9c-2.1-3.3-4.5-6.6-5.2-10.5c-0.1-0.7-0.2-1.4,0.1-2c0.3-0.6,0.9-1.1,1.6-0.9c1.1,0.3,0.4,2.2,1.4,3
				c0.9,0.7,2.4,0.6,3.3,0c1.4-1,1.8-3,1.3-4.7c-0.5-1.7-1.6-3.1-2.6-4.5c-3.2-4.5-5.3-9.7-6.4-15.1c-1.1-5.3-0.2-10.3-0.3-15.5
				c0-1.4,0.2-8.4-2.1-8.3c-2.2,0.1-2.4,6.3-2.5,7.7c-0.7,11.8-1.7,24.5-9.3,33.6c-1,1.2-2.1,2.4-2.3,3.9c-0.2,1.5,0.6,3,2,3.7
				s3.1,0.4,4.1-0.7c0.7-0.7,1.6-2.5,2.8-1.3c0.5,0.5,0.6,1.3,0.7,2c0.3,4.9-2,9.5-4.6,13.6c-2.6,4.1-5.6,8.1-7.1,12.7
				c-0.5,1.5-0.8,3.1-0.4,4.5c0.4,1.5,1.6,2.9,3.2,3c2.5,0.2,2.9-2.2,4.9-3.2c0.9-0.5,2.2-0.5,3,0.3c0.5,0.5,0.6,1.3,0.6,2
				c-0.1,3.6-3.4,6.2-6,8.8c-3,3-5.4,6.7-6.9,10.6c-0.4,1.2-0.8,2.4-0.8,3.6c0,1.2,0.6,2.5,1.6,3.2c1.6,1.1,3.9,0.4,5.3-0.9
				c1.4-1.3,2.2-3.1,3.2-4.8c0.5-1,1.3-1.9,2.3-2.2c4.3-0.9,1.2,6.3,0.3,7.5c-5.1,6.7-12.2,13.2-11.7,21.6c0.1,1.3,0.5,2.9,1.7,3.4
				c1.8,0.8,3.6-1,4.7-2.6c0.7-1,5.6-11,6.2-5.8c0.6,4.9-3.1,7.2-5.9,10.5c-3.1,3.7-5.4,8.1-6.8,12.8c-0.6,2-0.6,4.7,1.3,5.5
				c3,1.2,4-2.8,5.7-4.2c1.9-1.5,4.5-0.7,4.9,1.8c0.3,1.5-0.3,3-1,4.3c-3.1,5.5-9.6,8.8-11.8,14.8c-0.6,1.6-0.7,3.8,0.7,4.8
				c2.3,1.7,4.6-1.2,6.1-2.6c0.5-0.5,1.1-0.9,1.8-0.9c0.7,0,1.3,0.7,1.5,1.4c0.2,0.7,0,1.5-0.2,2.2c-1.9,6.1-7.3,8.8-10.9,13.6
				c-1.6,2.1-2.7,4.7-3.1,7.3c-0.2,1.3-0.3,2.6,0.2,3.8c0.5,1.2,1.7,2.2,3,2.2c1.7,0,2.9-1.6,3.5-3.2c0.6-1.5,1-3.3,2.1-4.5
				c1.4-1.5,4.5-1.3,4.7,1.1c0.2,1.8-2.8,4.4-3.8,5.8c-3.7,5.8-7.3,11.7-10.7,17.7c-0.7,1.2-1.4,2.5-1.6,3.9c-0.2,1.4,0.3,3,1.6,3.7
				c0.8,0.4,1.7,0.5,2.6,0.3c7.2-1.4,7.1-11,11.6-15.2c0,4.9-1.8,9.7-5,13.4c-1.3,1.6-3,3.2-4.5,4.8l-18.4,7.2
				c-0.1-0.2-0.3-0.3-0.4-0.5c-1.1-1.5-2.2-3-2.6-4.9c-0.1-0.5-0.7-2.1-0.4-2.5c0.6-1,1.6,0.3,1.9,0.8c0.5,0.9,1.1,1.7,1.7,2.6
				c0.5,0.6,1,1.3,1.7,1.7c0.7,0.4,1.5,0.6,2.3,0.3c1-0.4,1.4-1.6,1.5-2.6c0.1-1.6-0.6-3.2-1.5-4.6c-0.9-1.4-2.1-2.5-3.2-3.7
				c-0.8-0.9-1.6-1.8-2.4-2.8c-0.8-1-4.2-7.3-1.6-8.1c0.6-0.2,1.3,0.1,1.8,0.5s0.8,1,1.2,1.5c1,1.1,2.5,1.7,4,1.7
				c0.4,0,0.8-0.1,1.1-0.3c0.5-0.4,0.7-1,0.7-1.6c0-1.9-1.1-3.7-2.2-5.2c-1.3-1.7-2.1-3.5-3.2-5.3c-1.3-2-2.6-3.8-2.9-6.2
				c2.2-2.1,4.4,4.7,7.4,3.8c2.1-0.7,1.1-3.7-0.2-5.5c-2.8-4.1-4.6-8.8-5.7-13.6c-0.5-2.4-0.9-4.8-1.3-7.3c-0.1-1,0-6.2-2.3-4.8
				c-0.7,0.4-0.9,1.3-1.1,2.1c-0.9,4.1-1.8,8.2-2.8,12.2c-0.8,3.2-1.2,7.6-3.3,10.3c-1.1,1.5-2.5,2.6-2.4,4.6c0,0.2,0,0.3,0.1,0.5
				c0.1,0.2,0.4,0.3,0.6,0.4c2.4,0.8,4-0.9,5.5-2.5c0.2-0.2,0.4-0.4,0.7-0.5c0.3-0.1,0.6-0.1,0.8,0.1c0.5,0.5,0.1,2.1,0,2.7
				c-0.3,2.1-1.3,4-2.5,5.7c-2,2.7-4.6,5-6.2,8c-0.3,0.6-0.6,1.3-0.6,2c0.1,1.3,1.4,2.1,2.6,2.1c1.6,0.1,2.6-1.2,3.1-2.6
				c0.4-0.9,0.8-1.9,1.6-2.4c0.2-0.1,0.5-0.2,0.7,0c0.1,0.1,0.1,0.2,0.1,0.3c0.1,2-0.3,3.9-1.1,5.7c-0.9,1.9-2.2,3-3.7,4.4
				c-0.8,0.7-1.6,1.5-2.1,2.5c-0.4,0.7-0.6,1.5-0.5,2.3s0.6,1.5,1.3,1.8c1,0.4,2.2-0.2,2.9-0.9c0.4-0.4,2.5-3.8,3.3-2.5
				c0.3,0.5-0.3,2.3-0.4,2.9c-0.4,1.8-0.9,3.6-1.6,5.4c-1.2,2.9-2.9,5.7-5,8.1l-58.2,25.4h-62c-0.1-0.2-0.2-0.3-0.3-0.5
				c-0.9-1.4-2.1-2.5-3.2-3.7c-0.8-0.9-1.6-1.8-2.4-2.8c-0.8-1-4.2-7.3-1.6-8.1c0.6-0.2,1.3,0.1,1.8,0.5c0.5,0.4,0.8,1,1.2,1.5
				c1,1.1,2.5,1.7,4,1.7c0.4,0,0.8-0.1,1.1-0.3c0.5-0.4,0.7-1,0.7-1.6c0-1.9-1.1-3.7-2.2-5.2c-1.3-1.7-2.1-3.5-3.2-5.3
				c-1.3-2-2.6-3.8-2.9-6.2c2.2-2.1,4.4,4.7,7.4,3.8c2.1-0.7,1.1-3.7-0.2-5.5c-2.8-4.1-4.6-8.8-5.7-13.6c-0.5-2.4-0.9-4.8-1.3-7.3
				c-0.1-1,0-6.2-2.3-4.8c-0.7,0.4-0.9,1.3-1.1,2.1c-0.9,4.1-1.8,8.2-2.8,12.2c-0.8,3.2-1.2,7.6-3.3,10.3c-1.1,1.5-2.5,2.6-2.4,4.6
				c0,0.2,0,0.3,0.1,0.5c0.1,0.2,0.4,0.3,0.6,0.4c2.4,0.8,4-0.9,5.5-2.5c0.2-0.2,0.4-0.4,0.7-0.5c0.3-0.1,0.6-0.1,0.8,0.1
				c0.5,0.5,0.1,2.1,0,2.7c-0.3,2.1-1.3,4-2.5,5.7c-2,2.7-4.6,5-6.2,8c-0.3,0.6-0.6,1.3-0.6,2c0.1,1.3,1.4,2,2.6,2.1
				c1.6,0.1,2.6-1.2,3.1-2.6c0.4-0.9,0.8-1.9,1.6-2.4c0.2-0.1,0.5-0.2,0.7,0c0.1,0.1,0.1,0.2,0.1,0.3c0.1,2-0.3,3.9-1.1,5.7
				c-0.9,1.9-2.2,3-3.7,4.4c-0.8,0.7-1.6,1.5-2.1,2.5c-0.3,0.6-0.5,1.2-0.5,1.9h-19.9l-85.1,31.1l-64.2-10.5l-46.2,10.5h-33.2
				l-341.9,54.1v114.6h853.8V681.9H1064.9z M836.4,728.4c0.1,0.2,0.1,0.7,0,1.2h-2.3C834.9,728.6,835.9,727.6,836.4,728.4z
				 M1056,680c0.6-1,1.6,0.3,1.9,0.8c0.2,0.4,0.5,0.7,0.7,1h-2.4C1056,681.2,1055.8,680.3,1056,680z M1029,677.9
				c1,0.7,1.9,1.7,2.8,2.5c0.7,0.6,1.4,1.1,2.2,1.5h-5.1c-0.4-0.5-0.7-1.1-1.1-1.7C1027.2,679,1026.5,676.3,1029,677.9z"/>
			<path id="XMLID_86_" class="st10" d="M1058.4,654.9c-0.8-1.5-1.2-3.1-0.9-4.8c2.6,0.2,3.3,4.7,5.9,4.6c1.9,0,2.7-2.6,2.3-4.5
				c-0.9-4-4.2-6.8-6.6-9.8c-1.1-1.5-2.2-3-2.6-4.9c-0.1-0.5-0.7-2.1-0.4-2.5c0.6-1,1.6,0.3,1.9,0.8c0.5,0.9,1.1,1.7,1.7,2.6
				c0.5,0.6,1,1.3,1.7,1.7c0.7,0.4,1.5,0.6,2.3,0.3c1-0.4,1.4-1.6,1.5-2.6c0.1-1.6-0.6-3.2-1.5-4.6c-0.9-1.4-2.1-2.5-3.2-3.7
				c-0.8-0.9-1.6-1.8-2.4-2.8c-0.8-1-4.2-7.3-1.6-8.1c0.6-0.2,1.3,0.1,1.8,0.5c0.5,0.4,0.8,1,1.2,1.5c1,1.1,2.5,1.7,4,1.7
				c0.4,0,0.8-0.1,1.1-0.3c0.5-0.4,0.7-1,0.7-1.6c0-1.9-1.1-3.7-2.2-5.2c-1.3-1.7-2.1-3.5-3.2-5.3c-1.3-2-2.6-3.8-2.9-6.2
				c2.2-2.1,4.4,4.7,7.4,3.8c2.1-0.7,1.1-3.7-0.2-5.5c-2.8-4.1-4.6-8.8-5.7-13.6c-0.5-2.4-0.9-4.8-1.3-7.3c-0.1-1,0-6.2-2.3-4.8
				c-0.7,0.4-0.9,1.3-1.1,2.1c-0.9,4.1-1.8,8.2-2.8,12.2c-0.8,3.2-1.2,7.6-3.3,10.3c-1.1,1.5-2.5,2.6-2.4,4.6c0,0.2,0,0.3,0.1,0.5
				c0.1,0.2,0.4,0.3,0.6,0.4c2.4,0.8,4-0.9,5.5-2.5c0.2-0.2,0.4-0.4,0.7-0.5c0.3-0.1,0.6-0.1,0.8,0.1c0.5,0.5,0.1,2.1,0,2.7
				c-0.3,2.1-1.3,4-2.5,5.7c-2,2.7-4.6,5-6.2,8c-0.3,0.6-0.6,1.3-0.6,2c0.1,1.3,1.4,2,2.6,2.1c1.6,0.1,2.6-1.2,3.1-2.6
				c0.4-0.9,0.8-1.9,1.6-2.4c0.2-0.1,0.5-0.2,0.7,0c0.1,0.1,0.1,0.2,0.1,0.3c0.1,2-0.3,3.9-1.1,5.7c-0.9,1.9-2.2,3-3.7,4.4
				c-0.8,0.7-1.6,1.5-2.1,2.5c-0.4,0.7-0.6,1.5-0.5,2.3c0.1,0.8,0.6,1.5,1.3,1.8c1,0.4,2.2-0.2,2.9-0.9c0.4-0.4,2.5-3.8,3.3-2.5
				c0.3,0.5-0.3,2.3-0.4,2.9c-0.4,1.8-0.9,3.6-1.6,5.4c-1.4,3.5-3.6,6.8-6.2,9.5c-1.1,1.2-2.5,2.5-2.4,4.1c0,0.1,0,0.2,0.1,0.3
				l-384.4-46.9c-3-3.2-5.3-7.2-6.4-11.5c1.5,1.9,3.2,3.6,5.1,5c1.4,1,2.9,0.9,3.4-1c0.2-0.8,0.2-1.6,0.1-2.4
				c-0.2-1.7-0.5-3.4-1.2-5c-1.2-2.7-3.5-4.7-5.4-7c-1.9-2.3-3.5-5.2-2.9-8.1c0.1-0.5,0.3-0.9,0.7-1.2c0.7-0.3,1.5,0.2,1.9,0.9
				c0.8,1.4,0.9,2.4,2.7,1.9c1.3-0.4,2.1-1.9,2.1-3.2c0-1.1-0.6-2-1.1-3c-2.8-4.8-8.3-9.2-7.4-15.4c0.1-0.4,0.2-0.9,0.5-1.2
				c0.8-0.7,2.1,0.2,2.7,1.1c0.6,0.9,1.5,2,2.6,1.6c1-0.4,1-1.8,0.7-2.8c-1.2-4.7-4.1-8.6-6.1-13c-0.5-1.1-1-2.4-0.8-3.6
				c0-0.2,0.1-0.5,0.2-0.7c0.3-0.4,1.1-0.4,1.5,0c1,0.9,1.1,2.6,2.7,2.8c1.5,0.2,2.7-1.6,2.6-3.1c-0.1-1.5-1.1-2.8-1.9-4.1
				c-6-9.6-6-22.2-9.6-32.7c-0.1-0.4-0.3-0.8-0.6-1.1c-0.7-0.5-1.7,0-2.1,0.8c-0.4,0.8-0.2,1.7-0.1,2.5c0.9,7.2-0.5,14.5-1.8,21.7
				c-0.5,2.7-1,5.5-2,8.1c-1.2,3.4-3.1,6.4-4.4,9.8c-0.7,1.7-0.9,4.2,0.9,4.7c2.1,0.7,3.7-2.7,5.9-2.7c3.7,0.1,0.8,5.1,0.1,6.5
				c-1.6,3.3-4.3,6.4-4.4,10.2c0,0.5,0,1.1,0.3,1.5c2,3.1,4.7-1.9,5.6-3.1c0.4-0.6,1.2-1,1.8-0.6c0.6,0.4,0.6,1.2,0.5,1.8
				c-0.8,7.7-8.7,12.3-10.8,19.6c-0.3,0.9-0.4,1.9,0,2.8c1,2,4,1.4,5.6-0.1c1.1-1.1,1.8-2.5,2.9-3.6c1.1-1.1,3.2-1.7,2.7,0.8
				c-0.2,0.9-0.8,1.6-1.4,2.2c-1.7,1.9-3.4,3.8-5.3,5.5c-1,0.9-2,1.7-2.7,2.8c-0.9,1.3-1.5,2.8-2,4.4c-0.5,1.4-0.8,3.1,0.3,4
				c0.7,0.6,1.7,0.6,2.5,0.2c0.8-0.4,1.4-1,2-1.7c0.9-1.1,1.8-2.3,2.5-3.6c0.4-0.3,1.1,0,1.3,0.5c0.2,0.5,0.2,1,0.1,1.5
				c-0.5,3.4-2,5.3-4.1,7.4L554,593.4l-43.8-16.8c-0.2-1.3-0.7-2.5-1.4-3.5c-0.9-1.4-2.1-2.5-3.2-3.7c-0.8-0.9-1.6-1.8-2.4-2.8
				c-0.8-1-4.2-7.3-1.6-8.1c0.6-0.2,1.3,0.1,1.8,0.5c0.5,0.4,0.8,1,1.2,1.5c1,1.1,2.5,1.7,4,1.7c0.4,0,0.8-0.1,1.1-0.3
				c0.5-0.4,0.7-1,0.7-1.6c0-1.9-1.1-3.7-2.2-5.2c-1.3-1.7-2.1-3.5-3.2-5.3c-1.3-2-2.6-3.8-2.9-6.2c2.2-2.1,4.4,4.7,7.4,3.8
				c2.1-0.7,1.1-3.7-0.2-5.5c-2.8-4.1-4.6-8.8-5.7-13.6c-0.5-2.4-0.9-4.8-1.3-7.3c-0.1-1,0-6.2-2.3-4.8c-0.7,0.4-0.9,1.3-1.1,2.1
				c-0.9,4.1-1.8,8.2-2.8,12.2c-0.8,3.2-1.2,7.6-3.3,10.3c-1.1,1.5-2.5,2.6-2.4,4.6c0,0.2,0,0.3,0.1,0.5c0.1,0.2,0.4,0.3,0.6,0.4
				c2.4,0.8,4-0.9,5.5-2.5c0.2-0.2,0.4-0.4,0.7-0.5c0.3-0.1,0.6-0.1,0.8,0.1c0.5,0.5,0.1,2.1,0,2.7c-0.3,2.1-1.3,4-2.5,5.7
				c-2,2.7-4.6,5-6.2,8c-0.3,0.6-0.6,1.3-0.6,2c0.1,1.3,1.4,2.1,2.6,2.1c1.6,0.1,2.6-1.2,3.1-2.6c0.4-0.9,0.8-1.9,1.6-2.4
				c0.2-0.1,0.5-0.2,0.7,0c0.1,0.1,0.1,0.2,0.1,0.3c0.1,2-0.3,3.9-1.1,5.7c-0.9,1.9-2.2,3-3.7,4.4c-0.1,0.1-0.2,0.2-0.3,0.3
				l-19.7-7.6c-0.6-2.2-2.7-4.5-4.5-6.3c-3.2-3.3-5.6-7.4-6.7-11.9c1.5,1.9,3.2,3.6,5.1,5c1.4,1,2.9,0.9,3.4-1
				c0.2-0.8,0.2-1.6,0.1-2.4c-0.2-1.7-0.5-3.4-1.2-5c-1.2-2.7-3.5-4.7-5.4-7c-1.9-2.3-3.5-5.2-2.9-8.1c0.1-0.5,0.3-0.9,0.7-1.2
				c0.7-0.3,1.5,0.2,1.9,0.9c0.8,1.4,0.9,2.4,2.7,1.9c1.3-0.4,2.1-1.9,2.1-3.2c0-1.1-0.6-2-1.1-3c-2.8-4.8-8.3-9.2-7.4-15.4
				c0.1-0.4,0.2-0.9,0.5-1.2c0.8-0.7,2.1,0.2,2.7,1.1c0.6,0.9,1.5,2,2.6,1.6c1-0.4,1-1.8,0.7-2.8c-1.2-4.7-4.1-8.6-6.1-13
				c-0.5-1.1-1-2.4-0.8-3.6c0-0.2,0.1-0.5,0.2-0.7c0.3-0.4,1.1-0.4,1.5,0c1,0.9,1.1,2.6,2.7,2.8c1.5,0.2,2.7-1.6,2.6-3.1
				c-0.1-1.5-1.1-2.8-1.9-4.1c-6-9.6-6-22.2-9.6-32.7c-0.1-0.4-0.3-0.8-0.6-1.1c-0.7-0.5-1.7,0-2.1,0.8c-0.4,0.8-0.2,1.7-0.1,2.5
				c0.9,7.2-0.5,14.5-1.8,21.7c-0.5,2.7-1,5.5-2,8.1c-1.2,3.4-3.1,6.4-4.4,9.8c-0.7,1.7-0.9,4.2,0.9,4.7c2.1,0.7,3.7-2.7,5.9-2.7
				c3.7,0.1,0.8,5.1,0.1,6.5c-1.6,3.3-4.3,6.4-4.4,10.2c0,0.5,0,1.1,0.3,1.5c2,3.1,4.7-1.9,5.6-3.1c0.4-0.6,1.2-1,1.8-0.6
				c0.6,0.4,0.6,1.2,0.5,1.8c-0.8,7.7-8.7,12.3-10.8,19.6c-0.3,0.9-0.4,1.9,0,2.8c1,2,4,1.4,5.6-0.1c1.1-1.1,1.8-2.5,2.9-3.6
				c1.1-1.1,3.2-1.7,2.7,0.8c-0.2,0.9-0.8,1.6-1.4,2.2c-1.7,1.9-3.4,3.8-5.3,5.5c-1,0.9-2,1.7-2.7,2.8c-0.9,1.3-1.5,2.8-2,4.4
				c-0.5,1.4-0.8,3.1,0.3,4c0.7,0.6,1.7,0.6,2.5,0.2c0.8-0.4,1.4-1,2-1.7c0.9-1.1,1.8-2.3,2.5-3.6c0.4-0.3,1.1,0,1.3,0.5
				c0.2,0.5,0.2,1,0.1,1.5c-0.5,3.2-1.8,5.1-3.7,7l-12.7-4.9h-13.8c-0.9-2.7-2.4-5.3-4.3-7.5c-1.7-2.1-4.7-4.3-3.8-7.3
				c0.1-0.4,0.3-0.8,0.6-1c0.5-0.4,1.3-0.4,2,0c0.6,0.3,1.1,0.9,1.5,1.4c0.6,0.8,3.4,5.2,4.6,2.8c0.2-0.3,0.2-0.7,0.1-1.1
				c-0.2-3.5-1.4-7-3.3-9.9c-1.8-2.6-4.3-4.9-5.5-7.8c-0.7-1.8-0.8-4.9,1.6-5c2.1,0,3.6,2.4,5.2,3.3c1.3,0.7,3.3,0.6,3.7-0.8
				c0.2-0.6,0-1.2-0.2-1.7c-1-3.2-2.7-6.4-5.1-8.7c-2.3-2.3-4.2-3.6-5.5-6.8c-0.5-1.2-0.7-2.9,0.3-3.6c0.8-0.6,2-0.2,2.7,0.5
				c0.8,0.7,1.3,1.6,2,2.2c0.7,0.7,1.9,1.1,2.7,0.5c0.7-0.4,0.9-1.3,0.8-2.1c-0.1-0.8-0.6-1.5-1-2.2c-1.4-2.2-2.9-4.3-4.2-6.6
				c-1-1.7-2.9-3.9-3.2-5.9c-0.1-0.7,0-1.6,0.7-1.9c0.5-0.2,1,0,1.4,0.3c0.4,0.3,0.7,0.7,1.1,1.1c0.7,0.7,1.7,1.2,2.7,1.4
				c0.7,0.1,1.4,0,1.9-0.5c0.4-0.4,0.4-1,0.4-1.6c-0.2-2.3-2.1-4.1-3.8-5.7c-1.1-1-6.4-7.6-4-9c1.9-1,4.5,5,6.5,2.5
				c0.6-0.7,0.5-1.7,0.2-2.5c-0.3-0.9-0.9-1.7-1.7-2.4c-0.9-0.8-2.1-1.2-3.1-1.8c-1.3-0.8-4.6-5.3-2.2-6.4c1.9-0.9,3.1,1.9,4.5,2.6
				c0.5,0.2,1.1,0.3,1.4-0.1c0,0,0,0,0.1-0.1c0.1-0.2,0.1-0.4,0.2-0.6c0.2-2.9-1.3-5.6-2.9-8c-1.6-2.4-3.3-4.9-3.8-7.7
				c-0.1-0.5-0.1-1,0.1-1.5c0.2-0.4,0.7-0.8,1.2-0.7c0.8,0.2,0.3,1.6,1,2.2c0.6,0.5,1.8,0.4,2.4,0c1.1-0.7,1.3-2.2,1-3.5
				c-0.4-1.2-1.2-2.3-1.9-3.3c-2.3-3.3-3.9-7.1-4.7-11.1c-0.8-3.9-0.2-7.6-0.2-11.5c0-1,0.2-6.2-1.6-6.1c-1.6,0.1-1.8,4.6-1.8,5.7
				c-0.6,8.7-1.3,18.1-6.9,24.8c-0.7,0.9-1.6,1.8-1.7,2.9c-0.1,1.1,0.5,2.2,1.4,2.7c1,0.5,2.3,0.3,3.1-0.5c0.5-0.5,1.2-1.9,2.1-1
				c0.4,0.4,0.5,0.9,0.5,1.5c0.2,3.6-1.5,7-3.4,10c-1.9,3-4.1,6-5.2,9.4c-0.4,1.1-0.6,2.3-0.3,3.4c0.3,1.1,1.2,2.1,2.3,2.2
				c1.9,0.1,2.2-1.6,3.6-2.4c0.7-0.4,1.7-0.4,2.2,0.2c0.4,0.4,0.5,1,0.4,1.5c-0.1,2.7-2.5,4.6-4.4,6.5c-2.2,2.2-4,4.9-5.1,7.9
				c-0.3,0.9-0.6,1.8-0.6,2.7c0,0.9,0.4,1.9,1.2,2.4c1.2,0.8,2.8,0.3,3.9-0.7c1-1,1.6-2.3,2.3-3.5c0.4-0.7,0.9-1.4,1.7-1.6
				c3.2-0.7,0.9,4.7,0.2,5.5c-3.8,4.9-9,9.8-8.7,16c0.1,1,0.4,2.1,1.3,2.5c1.3,0.6,2.7-0.7,3.5-1.9c0.5-0.7,4.1-8.1,4.6-4.3
				c0.5,3.6-2.3,5.3-4.3,7.8c-2.3,2.8-4,6-5,9.5c-0.4,1.5-0.5,3.5,1,4.1c2.2,0.9,2.9-2.1,4.2-3.1c1.4-1.1,3.3-0.5,3.7,1.3
				c0.2,1.1-0.2,2.2-0.8,3.2c-2.3,4.1-7.1,6.5-8.7,10.9c-0.4,1.2-0.5,2.8,0.5,3.5c1.7,1.2,3.4-0.9,4.5-1.9c0.4-0.3,0.8-0.7,1.3-0.7
				c0.5,0,1,0.5,1.1,1c0.1,0.5,0,1.1-0.1,1.6c-1.4,4.5-5.4,6.5-8.1,10c-0.9,1.2-1.6,2.5-2,3.9h-60.3l-89-28.9H239
				c-1.6-2.1-2.8-4.4-2.3-6.9c2.6,0.2,3.3,4.7,5.9,4.6c1.9,0,2.7-2.6,2.3-4.5c-0.9-4-4.2-6.8-6.6-9.8c-1.1-1.5-2.2-3-2.6-4.9
				c-0.1-0.5-0.7-2.1-0.4-2.5c0.6-1,1.6,0.3,1.9,0.8c0.5,0.9,1.1,1.7,1.7,2.6c0.5,0.6,1,1.3,1.7,1.7c0.7,0.4,1.5,0.6,2.3,0.3
				c1-0.4,1.4-1.6,1.5-2.6c0.1-1.6-0.6-3.2-1.5-4.6c-0.9-1.4-2.1-2.5-3.2-3.7c-0.8-0.9-1.6-1.8-2.4-2.8c-0.8-1-4.2-7.3-1.6-8.1
				c0.6-0.2,1.3,0.1,1.8,0.5c0.5,0.4,0.8,1,1.2,1.5c1,1.1,2.5,1.7,4,1.7c0.4,0,0.8-0.1,1.1-0.3c0.5-0.4,0.7-1,0.7-1.6
				c0-1.9-1.1-3.7-2.2-5.2c-1.3-1.7-2.1-3.5-3.2-5.3c-1.3-2-2.6-3.8-2.9-6.2c2.2-2.1,4.4,4.7,7.4,3.8c2.1-0.7,1.1-3.7-0.2-5.5
				c-2.8-4.1-4.6-8.8-5.7-13.6c-0.5-2.4-0.9-4.8-1.3-7.3c-0.1-1,0-6.2-2.3-4.8c-0.7,0.4-0.9,1.3-1.1,2.1c-0.9,4.1-1.8,8.2-2.8,12.2
				c-0.8,3.2-1.2,7.6-3.3,10.3c-1.1,1.5-2.5,2.6-2.4,4.6c0,0.2,0,0.3,0.1,0.5c0.1,0.2,0.4,0.3,0.6,0.4c2.4,0.8,4-0.9,5.5-2.5
				c0.2-0.2,0.4-0.4,0.7-0.5c0.3-0.1,0.6-0.1,0.8,0.1c0.5,0.5,0.1,2.1,0,2.7c-0.3,2.1-1.3,4-2.5,5.7c-2,2.7-4.6,5-6.2,8
				c-0.3,0.6-0.6,1.3-0.6,2c0.1,1.3,1.4,2,2.6,2.1c1.6,0.1,2.6-1.2,3.1-2.6c0.4-0.9,0.8-1.9,1.6-2.4c0.2-0.1,0.5-0.2,0.7,0
				c0.1,0.1,0.1,0.2,0.1,0.3c0.1,2-0.3,3.9-1.1,5.7c-0.9,1.9-2.2,3-3.7,4.4c-0.8,0.7-1.6,1.5-2.1,2.5c-0.4,0.7-0.6,1.5-0.5,2.3
				c0.1,0.8,0.6,1.5,1.3,1.8c1,0.4,2.2-0.2,2.9-0.9c0.4-0.4,2.5-3.8,3.3-2.5c0.3,0.5-0.3,2.3-0.4,2.9c-0.4,1.8-0.9,3.6-1.6,5.4
				c-1.4,3.5-3.6,6.8-6.2,9.5c-1.1,1.2-2.5,2.5-2.4,4.1c0.1,2.2,2.9,3.2,4.7,2.6c2.6-0.7,2.5-3.4,4.4-4.8c0.1-0.1,0.3-0.2,0.5-0.2
				c0.4,0.1,0.4,0.6,0.4,1c-0.3,2.1-1,4.1-1.8,6h-14.1c0-0.3,0-0.6,0-0.8c-0.4-3-1.8-5.9-3.9-8.1c-1.1-1.2-2.5-2.1-3.6-3.3
				c-0.7-0.8-3.8-6-0.7-5.8c0.4,0,0.8,0.3,1.1,0.5c0.8,0.7,1.2,1.6,1.9,2.4c0.7,0.7,1.8,1.3,2.7,0.8c1.3-0.6,1.2-2.5,0.8-3.8
				c-0.9-2.8-2.5-5.4-4.4-7.7c-1.7-2.1-4.7-4.3-3.8-7.3c0.1-0.4,0.3-0.8,0.6-1c0.5-0.4,1.3-0.4,2,0c0.6,0.3,1.1,0.9,1.5,1.4
				c0.6,0.8,3.4,5.2,4.6,2.8c0.2-0.3,0.2-0.7,0.1-1.1c-0.2-3.5-1.4-7-3.3-9.9c-1.8-2.6-4.3-4.9-5.5-7.8c-0.7-1.8-0.8-4.9,1.6-5
				c2.1,0,3.6,2.4,5.2,3.3c1.3,0.7,3.3,0.6,3.7-0.8c0.2-0.6,0-1.2-0.2-1.7c-1-3.2-2.7-6.4-5.1-8.7c-2.3-2.3-4.2-3.6-5.5-6.8
				c-0.5-1.2-0.7-2.9,0.3-3.6c0.8-0.6,2-0.2,2.7,0.5c0.8,0.7,1.3,1.6,2,2.2c0.7,0.7,1.9,1.1,2.7,0.5c0.7-0.4,0.9-1.3,0.8-2.1
				c-0.1-0.8-0.6-1.5-1-2.2c-1.4-2.2-2.9-4.3-4.2-6.6c-1-1.7-2.9-3.9-3.2-5.9c-0.1-0.7,0-1.6,0.7-1.9c0.5-0.2,1,0,1.4,0.3
				c0.4,0.3,0.7,0.7,1.1,1.1c0.7,0.7,1.7,1.2,2.7,1.4c0.7,0.1,1.4,0,1.9-0.5c0.4-0.4,0.4-1,0.4-1.6c-0.2-2.3-2.1-4.1-3.8-5.7
				c-1.1-1-6.4-7.6-4-9c1.9-1,4.5,5,6.5,2.5c0.6-0.7,0.5-1.7,0.2-2.5c-0.3-0.9-0.9-1.7-1.7-2.4c-0.9-0.8-2.1-1.2-3.1-1.8
				c-1.3-0.8-4.6-5.3-2.2-6.4c1.9-0.9,3.1,1.9,4.5,2.6c0.5,0.2,1.1,0.3,1.4-0.1c0,0,0,0,0.1-0.1c0.1-0.2,0.1-0.4,0.2-0.6
				c0.2-2.9-1.3-5.6-2.9-8c-1.6-2.4-3.3-4.9-3.8-7.7c-0.1-0.5-0.1-1,0.1-1.5c0.2-0.4,0.7-0.8,1.2-0.7c0.8,0.2,0.3,1.6,1,2.2
				c0.6,0.5,1.8,0.4,2.4,0c1.1-0.7,1.3-2.2,1-3.5c-0.4-1.2-1.2-2.3-1.9-3.3c-2.3-3.3-3.9-7.1-4.7-11.1c-0.8-3.9-0.2-7.6-0.2-11.5
				c0-1,0.2-6.2-1.6-6.1c-1.6,0.1-1.8,4.6-1.8,5.7c-0.6,8.7-1.3,18.1-6.9,24.8c-0.7,0.9-1.6,1.8-1.7,2.9c-0.1,1.1,0.5,2.2,1.4,2.7
				c1,0.5,2.3,0.3,3.1-0.5c0.5-0.5,1.2-1.9,2.1-1c0.4,0.4,0.5,0.9,0.5,1.5c0.2,3.6-1.5,7-3.4,10c-1.9,3-4.1,6-5.2,9.4
				c-0.4,1.1-0.6,2.3-0.3,3.4c0.3,1.1,1.2,2.1,2.3,2.2c1.9,0.1,2.2-1.6,3.6-2.4c0.7-0.4,1.7-0.4,2.2,0.2c0.4,0.4,0.5,1,0.4,1.5
				c-0.1,2.7-2.5,4.6-4.4,6.5c-2.2,2.2-4,4.9-5.1,7.9c-0.3,0.9-0.6,1.8-0.6,2.7c0,0.9,0.4,1.9,1.2,2.4c1.2,0.8,2.8,0.3,3.9-0.7
				c1-1,1.6-2.3,2.3-3.5c0.4-0.7,0.9-1.4,1.7-1.6c3.2-0.7,0.9,4.7,0.2,5.5c-3.8,4.9-9,9.8-8.7,16c0.1,1,0.4,2.1,1.3,2.5
				c1.3,0.6,2.7-0.7,3.5-1.9c0.5-0.7,4.1-8.1,4.6-4.3c0.5,3.6-2.3,5.3-4.3,7.8c-2.3,2.8-4,6-5,9.5c-0.4,1.5-0.5,3.5,1,4.1
				c2.2,0.9,2.9-2.1,4.2-3.1c1.4-1.1,3.3-0.5,3.7,1.3c0.2,1.1-0.2,2.2-0.8,3.2c-2.3,4.1-7.1,6.5-8.7,10.9c-0.4,1.2-0.5,2.8,0.5,3.5
				c1.7,1.2,3.4-0.9,4.5-1.9c0.4-0.3,0.8-0.7,1.3-0.7c0.5,0,1,0.5,1.1,1c0.1,0.5,0,1.1-0.1,1.6c-1.4,4.5-5.4,6.5-8.1,10
				c-1.2,1.6-2,3.4-2.3,5.4c-0.2,0.9-0.2,2,0.2,2.8c0.4,0.9,1.2,1.6,2.2,1.6c1.2,0,2.1-1.2,2.6-2.3c0.5-1.1,0.7-2.4,1.6-3.3
				c1.1-1.1,3.3-1,3.5,0.8c0.1,1.4-2.1,3.2-2.8,4.3c-2.7,4.3-5.3,8.6-7.8,13h-80.2c-0.1-2.6-2.6-5.2-4.7-7.2
				c-3.2-3.3-5.6-7.4-6.7-11.9c1.5,1.9,3.2,3.6,5.1,5c1.4,1,2.9,0.9,3.4-1c0.2-0.8,0.2-1.6,0.1-2.4c-0.2-1.7-0.5-3.4-1.2-5
				c-1.2-2.7-3.5-4.7-5.4-7c-1.9-2.3-3.5-5.2-2.9-8.1c0.1-0.5,0.3-0.9,0.7-1.2c0.7-0.3,1.5,0.2,1.9,0.9c0.8,1.4,0.9,2.4,2.7,1.9
				c1.3-0.4,2.1-1.9,2.1-3.2c0-1.1-0.6-2-1.1-3c-2.8-4.8-8.3-9.2-7.4-15.4c0.1-0.4,0.2-0.9,0.5-1.2c0.8-0.7,2.1,0.2,2.7,1.1
				c0.6,0.9,1.5,2,2.6,1.6c1-0.4,1-1.8,0.7-2.8c-1.2-4.7-4.1-8.6-6.1-13c-0.5-1.1-1-2.4-0.8-3.6c0-0.2,0.1-0.5,0.2-0.7
				c0.3-0.4,1.1-0.4,1.5,0c1,0.9,1.1,2.6,2.7,2.8c1.5,0.2,2.7-1.6,2.6-3.1c-0.1-1.5-1.1-2.8-1.9-4.1c-6-9.6-6-22.2-9.6-32.7
				c-0.1-0.4-0.3-0.8-0.6-1.1c-0.7-0.5-1.7,0-2.1,0.8c-0.4,0.8-0.2,1.7-0.1,2.5c0.9,7.2-0.5,14.5-1.8,21.7c-0.5,2.7-1,5.5-2,8.1
				c-1.2,3.4-3.1,6.4-4.4,9.8c-0.7,1.7-0.9,4.2,0.9,4.7c2.1,0.7,3.7-2.7,5.9-2.7c3.7,0.1,0.8,5.1,0.1,6.5c-1.6,3.3-4.3,6.4-4.4,10.2
				c0,0.5,0,1.1,0.3,1.5c2,3.1,4.7-1.9,5.6-3.1c0.4-0.6,1.2-1,1.8-0.6c0.6,0.4,0.6,1.2,0.5,1.8c-0.8,7.7-8.7,12.3-10.8,19.6
				c-0.3,0.9-0.4,1.9,0,2.8c1,2,4,1.4,5.6-0.1c1.1-1.1,1.8-2.5,2.9-3.6c1.1-1.1,3.2-1.7,2.7,0.8c-0.2,0.9-0.8,1.6-1.4,2.2
				c-1.7,1.9-3.4,3.8-5.3,5.5c-1,0.9-2,1.7-2.7,2.8c-0.9,1.3-1.5,2.8-2,4.4c-0.5,1.4-0.8,3.1,0.3,4c0.7,0.6,1.7,0.6,2.5,0.2
				c0.8-0.4,1.4-1,2-1.7c0.9-1.1,1.8-2.3,2.5-3.6c0.4-0.3,1.1,0,1.3,0.5c0.2,0.5,0.2,1,0.1,1.5c-0.7,4.3-2.7,6.2-5.7,8.9
				c-2.8,2.5-6,5.1-7.1,8.5h-9.3c-0.3-0.3-0.5-0.7-0.8-1c-2.5-3-5.6-6.3-4.9-10.1c2.6,0.2,3.3,4.7,5.9,4.6c1.9,0,2.7-2.6,2.3-4.5
				c-0.9-4-4.2-6.8-6.6-9.8c-1.1-1.5-2.2-3-2.6-4.9c-0.1-0.5-0.7-2.1-0.4-2.5c0.6-1,1.6,0.3,1.9,0.8c0.5,0.9,1.1,1.7,1.7,2.6
				c0.5,0.6,1,1.3,1.7,1.7c0.7,0.4,1.5,0.6,2.3,0.3c1-0.4,1.4-1.6,1.5-2.6c0.1-1.6-0.6-3.2-1.5-4.6c-0.9-1.4-2.1-2.5-3.2-3.7
				c-0.8-0.9-1.6-1.8-2.4-2.8c-0.8-1-4.2-7.3-1.6-8.1c0.6-0.2,1.3,0.1,1.8,0.5c0.5,0.4,0.8,1,1.2,1.5c1,1.1,2.5,1.7,4,1.7
				c0.4,0,0.8-0.1,1.1-0.3c0.5-0.4,0.7-1,0.7-1.6c0-1.9-1.1-3.7-2.2-5.2c-1.3-1.7-2.1-3.5-3.2-5.3c-1.3-2-2.6-3.8-2.9-6.2
				c2.2-2.1,4.4,4.7,7.4,3.8c2.1-0.7,1.1-3.7-0.2-5.5c-2.8-4.1-4.6-8.8-5.7-13.6c-0.5-2.4-0.9-4.8-1.3-7.3c-0.1-1,0-6.2-2.3-4.8
				c-0.7,0.4-0.9,1.3-1.1,2.1c-0.9,4.1-1.8,8.2-2.8,12.2c-0.8,3.2-1.2,7.6-3.3,10.3c-1.1,1.5-2.5,2.6-2.4,4.6c0,0.2,0,0.3,0.1,0.5
				c0.1,0.2,0.4,0.3,0.6,0.4c2.4,0.8,4-0.9,5.5-2.5c0.2-0.2,0.4-0.4,0.7-0.5c0.3-0.1,0.6-0.1,0.8,0.1c0.5,0.5,0.1,2.1,0,2.7
				c-0.3,2.1-1.3,4-2.5,5.7c-2,2.7-4.6,5-6.2,8c-0.3,0.6-0.6,1.3-0.6,2c0.1,1.3,1.4,2,2.6,2.1c1.6,0.1,2.6-1.2,3.1-2.6
				c0.4-0.9,0.8-1.9,1.6-2.4c0.2-0.1,0.5-0.2,0.7,0c0.1,0.1,0.1,0.2,0.1,0.3c0.1,2-0.3,3.9-1.1,5.7c-0.9,1.9-2.2,3-3.7,4.4
				c-0.8,0.7-1.6,1.5-2.1,2.5c-0.4,0.7-0.6,1.5-0.5,2.3c0.1,0.8,0.6,1.5,1.3,1.8c1,0.4,2.2-0.2,2.9-0.9c0.4-0.4,2.5-3.8,3.3-2.5
				c0.3,0.5-0.3,2.3-0.4,2.9c-0.4,1.8-0.9,3.6-1.6,5.4c-1.4,3.5-3.6,6.8-6.2,9.5c-1.1,1.2-2.5,2.5-2.4,4.1c0.1,2.2,2.9,3.2,4.7,2.6
				c2.6-0.7,2.5-3.4,4.4-4.8c0.1-0.1,0.3-0.2,0.5-0.2c0.4,0.1,0.4,0.6,0.4,1c-0.6,3.6-2,7.1-4.1,10.1H30.3c0.4-0.5,0.7-1.3,0.7-2
				c0.1-1.6-0.6-3.2-1.5-4.6c-0.9-1.4-2.1-2.5-3.2-3.7c-0.8-0.9-1.6-1.8-2.4-2.8c-0.8-1-4.2-7.3-1.6-8.1c0.6-0.2,1.3,0.1,1.8,0.5
				c0.5,0.4,0.8,1,1.2,1.5c1,1.1,2.5,1.7,4,1.7c0.4,0,0.8-0.1,1.1-0.3c0.5-0.4,0.7-1,0.7-1.6c0-1.9-1.1-3.7-2.2-5.2
				c-1.3-1.7-2.1-3.5-3.2-5.3c-1.3-2-2.6-3.8-2.9-6.2c2.2-2.1,4.4,4.7,7.4,3.8c2.1-0.7,1.1-3.7-0.2-5.5c-2.8-4.1-4.6-8.8-5.7-13.6
				c-0.5-2.4-0.9-4.8-1.3-7.3c-0.1-1,0-6.2-2.3-4.8c-0.7,0.4-0.9,1.3-1.1,2.1c-0.9,4.1-1.8,8.2-2.8,12.2c-0.8,3.2-1.2,7.6-3.3,10.3
				c-1.1,1.5-2.5,2.6-2.4,4.6c0,0.2,0,0.3,0.1,0.5c0.1,0.2,0.4,0.3,0.6,0.4c2.4,0.8,4-0.9,5.5-2.5c0.2-0.2,0.4-0.4,0.7-0.5
				c0.3-0.1,0.6-0.1,0.8,0.1c0.5,0.5,0.1,2.1,0,2.7c-0.3,2.1-1.3,4-2.5,5.7c-2,2.7-4.6,5-6.2,8c-0.3,0.6-0.6,1.3-0.6,2
				c0.1,1.3,1.4,2,2.6,2.1c1.6,0.1,2.6-1.2,3.1-2.6c0.4-0.9,0.8-1.9,1.6-2.4c0.2-0.1,0.5-0.2,0.7,0c0.1,0.1,0.1,0.2,0.1,0.3
				c0.1,2-0.3,3.9-1.1,5.7c-0.9,1.9-2.2,3-3.7,4.4c-0.8,0.7-1.6,1.5-2.1,2.5c-0.4,0.7-0.6,1.5-0.5,2.3c0.1,0.8,0.6,1.5,1.3,1.8
				c1,0.4,2.2-0.2,2.9-0.9c0.4-0.4,2.5-3.8,3.3-2.5c0.3,0.5-0.3,2.3-0.4,2.9c-0.3,1.5-0.8,3-1.3,4.4h-29.8v230.1h1106V659
				L1058.4,654.9z M207.3,517.2c0.6,0.4,1.1,0.9,1.7,1.5h-2.6C206,517.7,205.7,516.1,207.3,517.2z M194.3,513.5c0,1.8-0.3,3.6-1,5.3
				h-2.1C192,516.7,192.8,514.7,194.3,513.5z M83.7,516.7c0,0.7-0.2,1.4-0.5,2h-5.1C79.7,516.8,81.8,515.3,83.7,516.7z M22.4,516.5
				c-0.1-0.5-0.7-2.1-0.4-2.5c0.6-1,1.6,0.3,1.9,0.8c0.5,0.9,1.1,1.7,1.7,2.6c0.4,0.5,0.7,1,1.2,1.3h-3.5
				C22.9,518,22.6,517.3,22.4,516.5z M402.5,547.6h-2.6C400.7,547,401.9,547,402.5,547.6z M1050.1,650.3c0.1-0.1,0.3-0.2,0.5-0.2
				c0.4,0.1,0.4,0.6,0.4,1c-0.2,1-0.4,1.9-0.7,2.8l-2.5-0.3C1048.5,652.5,1048.9,651.1,1050.1,650.3z"/>
			<path id="XMLID_71_" class="st11" d="M982.3,697c4.1-4.8,8.1-9.9,10.3-15.8c1.8-5,2.2-10.6,1.2-15.8c-0.5-2.4-1.3-4.8-3.2-6.4
				c-4.5,7.2-8.5,15.2-10.1,23.4c-1-15.9-1.1-31.8-0.2-47.7c-3.4,16.1-3.9,32.8-1.4,49.1c-0.6-1.1-1.2-2.1-2-3.1
				c-3.2-4-8.2-6.5-13.4-6.6c0.9,4.8,2,9.7,4.3,14.1c2.1,3.8,5.2,7.2,9.2,8.9h-46.3l-3.5-12.6h-9.6l-9.3-9.3h-29.3l-7.2,7.2h-10.8
				L855,697h-39.1c-0.2-1.1-0.5-2.2-0.9-3.3c-0.1-0.3-0.2-0.6-0.5-0.8c-0.9-0.6-1.9,1.1-3,0.8c0.3-5.4-4.5-10.6-9.9-10.7
				c-0.5,4.8,0.6,9.7,2.9,14h-68.2l-16.6,5.7l-18.1-5.7h-235l-38.6-6.3h-79.1l-10.2,6.3H239c4.3-5,8.6-9.9,12.9-14.9
				c-5.5,3-9.5,8-13.1,13.3c4.5-10.4,4.9-22.7,0.8-33.3c-4.7,4.9-6.9,11.7-7.1,18.5c-0.1,2,0.1,3.9,0.3,5.9c-3-6.1-8.4-11-14.9-12.8
				c-0.3,5.4,0.9,11,3.8,15.6c2.2,3.4,5.5,6.2,9.2,7.7h-37.3l-5.7-26.6h-27.2v8.8h-24.9l-9.5,17.8H-13.9v392h1106V697H982.3z
				 M980.4,695.7c0.1,0.4,0.2,0.9,0.3,1.3h-1.1C980,696.7,980.3,696.3,980.4,695.7z"/>
			
				<linearGradient id="XMLID_6_" gradientUnits="userSpaceOnUse" x1="196.5995" y1="262.0796" x2="196.5995" y2="151.254" gradientTransform="matrix(1.0824 7.300000e-03 7.300000e-03 1.0006 -15.9207 -1.7973)">
				<stop  offset="0" style="stop-color:#FFFFFF;stop-opacity:0"/>
				<stop  offset="1" style="stop-color:#FFFFFF"/>
			</linearGradient>
			<path id="XMLID_70_" class="st12" d="M5.2,224c19.6-3.1,57.2,6.3,69.6-12.4c2-3,3-6.4,4-9.8c1.7-5.7,3.3-11.4,5-17.1
				c4.6-15.8,10.9-33.4,26.9-40.2c37.2-15.8,61.1,20.8,73,46c1.6,3.3,3.5,7,7.1,8.4c8.1,3.2,14.3-6.5,20.9-11.7
				c9.8-7.7,27.3-4.3,33.2,6.4c2.4,4.4,4,10.4,9.1,11.6c6.3,1.5,10.7-5.5,16.3-8.5c11.6-6.4,25,4.9,36,12.4
				c26.5,18.2,62.4,16.5,95,14c4.2,2.5-1.4,7.8-6.2,9C336,246.7,274,248.4,212.7,250c-65.9,1.8-132.1,3.5-197.7-3.9
				c-5.6-0.6-11.5-1.5-15.9-4.7c-4.4-3.3-6.5-9.9-2.8-13.8C-1.6,225.3,1.9,224.6,5.2,224z"/>
			<g id="XMLID_3_">
				<path id="XMLID_69_" class="st10" d="M482.6,277.6c0,0,0.9-4.2,0-4.9c-0.9-0.7-14-7.2-17.5-6.6c-3.4,0.5-1.3,2.3,0,3.2
					c1.3,0.9,2.8,3.2,3.3,4.5c0.5,1.3,1.5,6.9,3.2,7.4c0,0-12.2,5.2-13.1,6.4c-0.9,1.2,7.4-2.1,7.4-2.1s9.8,0.9,12.6-0.4
					c2.8-1.3,7-5,8.6-6.6c1.2-1.2,3.2-0.1,3.2-0.1S487.5,274.2,482.6,277.6z"/>
				<path id="XMLID_68_" class="st10" d="M380,297.8c0,0,0.9-4.2,0-4.9c-0.9-0.7-14-7.2-17.5-6.6c-3.4,0.5-1.3,2.3,0,3.2
					c1.3,0.9,2.8,3.2,3.3,4.5c0.5,1.3,1.5,6.9,3.2,7.4c0,0-12.2,5.2-13.1,6.4c-0.9,1.2,7.4-2.1,7.4-2.1s9.8,0.9,12.6-0.4
					c2.8-1.3,7-5,8.6-6.6c1.2-1.2,3.2-0.1,3.2-0.1S384.9,294.3,380,297.8z"/>
				<path id="XMLID_65_" class="st10" d="M302.3,293.8c0,0,3.6-2.6,3.4-4.8c-0.2-2.2-2.4-10.3-4.4-10.9c-2-0.6,0,4.2,0,4.2
					s-4.6-3.2-4.6-1.6c0,1.6,1.4,3.6,1.4,3.6s-6.8-1.8-6.6-1c0.2,0.8,2.4,2.7,2.4,2.7s-5.8,0.9-5.6,2.5c0.2,1.6,1.8,1.2,1.8,1.2
					s-0.4,5.6,1.4,7.4c0,0-13.5,4.4-14.3,5.8c-0.8,1.4,9.7-2.2,9.7-2.2s8.7,1.4,11.9,0.6c3.2-0.8,8.7-4.6,10.3-4.6
					c1.6,0,4.2-0.2,4.2-0.2S310.2,292,302.3,293.8z"/>
				<path id="XMLID_43_" class="st10" d="M571.9,230.3c0,0,3.6-2.6,3.4-4.8c-0.2-2.2-2.4-10.3-4.4-10.9c-2-0.6,0,4.2,0,4.2
					s-4.6-3.2-4.6-1.6c0,1.6,1.4,3.6,1.4,3.6s-6.8-1.8-6.6-1c0.2,0.8,2.4,2.7,2.4,2.7s-5.8,0.9-5.6,2.5c0.2,1.6,1.8,1.2,1.8,1.2
					s-0.4,5.6,1.4,7.4c0,0-13.5,4.4-14.3,5.8c-0.8,1.4,9.7-2.2,9.7-2.2s8.7,1.4,11.9,0.6c3.2-0.8,8.7-4.6,10.3-4.6
					c1.6,0,4.2-0.2,4.2-0.2S579.8,228.5,571.9,230.3z"/>
				<path id="XMLID_29_" class="st10" d="M635.5,321.4c0,0,3.6-2.6,3.4-4.8s-2.4-10.3-4.4-10.9c-2-0.6,0,4.2,0,4.2s-4.6-3.2-4.6-1.6
					c0,1.6,1.4,3.6,1.4,3.6s-6.8-1.8-6.6-1c0.2,0.8,2.4,2.7,2.4,2.7s-5.8,0.9-5.6,2.5c0.2,1.6,1.8,1.2,1.8,1.2s-0.4,5.6,1.4,7.4
					c0,0-13.5,4.4-14.3,5.8c-0.8,1.4,9.7-2.2,9.7-2.2s8.7,1.4,11.9,0.6c3.2-0.8,8.7-4.6,10.3-4.6s4.2-0.2,4.2-0.2
					S643.5,319.6,635.5,321.4z"/>
				<path id="XMLID_28_" class="st10" d="M497.2,352.3c0,0,3.6-2.6,3.4-4.8c-0.2-2.2-2.4-10.3-4.4-10.9c-2-0.6,0,4.2,0,4.2
					s-4.6-3.2-4.6-1.6c0,1.6,1.4,3.6,1.4,3.6s-6.8-1.8-6.6-1c0.2,0.8,2.4,2.7,2.4,2.7s-5.8,0.9-5.6,2.5c0.2,1.6,1.8,1.2,1.8,1.2
					s-0.4,5.6,1.4,7.4c0,0-13.5,4.4-14.3,5.8c-0.8,1.4,9.7-2.2,9.7-2.2s8.7,1.4,11.9,0.6c3.2-0.8,8.7-4.6,10.3-4.6
					c1.6,0,4.2-0.2,4.2-0.2S505.2,350.5,497.2,352.3z"/>
				<path id="XMLID_27_" class="st10" d="M571.9,394.1c0,0,3.6-2.6,3.4-4.8c-0.2-2.2-2.4-10.3-4.4-10.9c-2-0.6,0,4.2,0,4.2
					s-4.6-3.2-4.6-1.6c0,1.6,1.4,3.6,1.4,3.6s-6.8-1.8-6.6-1c0.2,0.8,2.4,2.7,2.4,2.7s-5.8,0.9-5.6,2.5c0.2,1.6,1.8,1.2,1.8,1.2
					s-0.4,5.6,1.4,7.4c0,0-13.5,4.4-14.3,5.8c-0.8,1.4,9.7-2.2,9.7-2.2s8.7,1.4,11.9,0.6c3.2-0.8,8.7-4.6,10.3-4.6
					c1.6,0,4.2-0.2,4.2-0.2S579.8,392.3,571.9,394.1z"/>
				<g id="XMLID_24_">
					<path id="XMLID_26_" class="st10" d="M434.4,327.1c0,0-0.5-2.1-3.9-3c-3.4-0.9-5.1,0.3-5.1,0.3s-2.5-1.6-5.4-1.6
						c-2.9,0-16.7,1.1-18.8,2c-2.1,0.9,5.7,0.2,7.2,0.4c1.5,0.3,3.4,0,4.3,0.3c0.9,0.3,3.4,3.1,3.9,4.3c0.5,1.1,1.9-0.2,1.9-0.2
						s-1.9,7.3,11,10.1c0,0,1.1-7.7-0.6-11.8C428.8,327.9,432.5,325.9,434.4,327.1z"/>
					<path id="XMLID_25_" class="st10" d="M411.8,324.3c0,0,1.4,1.5,1.2,2.6c-0.2,1.2-0.8,12.2,3,16l1.2-1.1c0,0-0.5,2.1,0.4,2.5
						c0.9,0.4,1.2-1.2,1.2-1.2s0.8,2.5,1.2,2.6c0.4,0.1,0.6-1.9,0.6-1.9s0.7,2,1.2,2.5c0.6,0.4,2-12.4,2-12.4L411.8,324.3z"/>
				</g>
				<g id="XMLID_20_">
					<path id="XMLID_23_" class="st10" d="M577.1,293.3c0,0-0.5-2.1-3.9-3c-3.4-0.9-5.1,0.3-5.1,0.3s-2.5-1.6-5.4-1.6
						c-2.9,0-16.7,1.1-18.8,2c-2.1,0.9,5.7,0.2,7.2,0.4c1.5,0.3,3.4,0,4.3,0.3c0.9,0.3,3.4,3.1,3.9,4.3c0.5,1.1,1.9-0.2,1.9-0.2
						s-1.9,7.3,11,10.1c0,0,1.1-7.7-0.6-11.8C571.5,294.2,575.2,292.2,577.1,293.3z"/>
					<path id="XMLID_22_" class="st10" d="M554.5,290.5c0,0,1.4,1.5,1.2,2.6s-0.8,12.2,3,16l1.2-1.1c0,0-0.5,2.1,0.4,2.5
						c0.9,0.4,1.2-1.2,1.2-1.2s0.8,2.5,1.2,2.6c0.4,0.1,0.6-1.9,0.6-1.9s0.7,2,1.2,2.5c0.6,0.4,2-12.4,2-12.4L554.5,290.5z"/>
				</g>
			</g>
		</g>
		<path class="st13" d="M1093.1-171.8V919.4c-130.9,65.2-519.2,27.3-588.8-61.5c-79.7-101.6-2.8-151-82-219.5
			c-76.9-66.6-111-8.5-181.2-84.7c-60.7-65.8,27.2-181.8-18.2-261.6c-19.7-34.7-46.1-64.4-75-89.8C42.6,110,32-99.1,137.3-171.8
			H1093.1z"/>
	</g>
</g>
</svg>
